<svg width="68" height="68" viewBox="0 0 68 68" fill="none" xmlns="http://www.w3.org/2000/svg">
<path d="M42.4999 64.4584H25.4999C13.0049 64.4584 9.20825 60.6617 9.20825 48.1667V19.8334C9.20825 7.33835 13.0049 3.54169 25.4999 3.54169H42.4999C54.9949 3.54169 58.7916 7.33835 58.7916 19.8334V48.1667C58.7916 60.6617 54.9949 64.4584 42.4999 64.4584ZM25.4999 7.79169C15.3566 7.79169 13.4583 9.71835 13.4583 19.8334V48.1667C13.4583 58.2817 15.3566 60.2084 25.4999 60.2084H42.4999C52.6433 60.2084 54.5416 58.2817 54.5416 48.1667V19.8334C54.5416 9.71835 52.6433 7.79169 42.4999 7.79169H25.4999Z" fill="#292D32"/>
<path d="M39.6666 17.7083H28.3333C27.1716 17.7083 26.2083 16.745 26.2083 15.5833C26.2083 14.4216 27.1716 13.4583 28.3333 13.4583H39.6666C40.8283 13.4583 41.7916 14.4216 41.7916 15.5833C41.7916 16.745 40.8283 17.7083 39.6666 17.7083Z" fill="#292D32"/>
<path d="M34.0001 56.27C30.4017 56.27 27.4834 53.3517 27.4834 49.7534C27.4834 46.155 30.4017 43.2367 34.0001 43.2367C37.5984 43.2367 40.5167 46.155 40.5167 49.7534C40.5167 53.3517 37.5984 56.27 34.0001 56.27ZM34.0001 47.4584C32.7534 47.4584 31.7334 48.4784 31.7334 49.725C31.7334 50.9717 32.7534 51.9917 34.0001 51.9917C35.2467 51.9917 36.2667 50.9717 36.2667 49.725C36.2667 48.4784 35.2467 47.4584 34.0001 47.4584Z" fill="#292D32"/>
</svg>
