<svg width="228" height="61" viewBox="0 0 228 61" fill="none" xmlns="http://www.w3.org/2000/svg">
<path d="M7.92217 1.975C8.87217 1.975 9.59717 2.4 9.59717 3.35V18.675C9.59717 19.625 8.84717 20.05 7.99717 20.05C7.14717 20.05 6.39717 19.625 6.39717 18.675V5.725L3.17217 7.575C2.34717 8.05 1.54717 7.675 1.14717 6.95C0.772168 6.275 0.872168 5.4 1.64717 4.975L5.87217 2.625C6.74717 2.15 7.32217 1.975 7.92217 1.975ZM17.6001 1.975C18.4501 1.975 19.2001 2.4 19.2001 3.35V10.25L26.5251 2.375C27.0751 1.775 28.0001 1.9 28.5251 2.45C29.0751 3.025 29.2001 3.85 28.6501 4.425L23.1001 10.2L29.2251 17.5C29.8751 18.25 29.7001 19.1 29.0001 19.65C28.3501 20.175 27.4501 20.25 26.8501 19.5L21.0251 12.225L19.2001 14.1V18.675C19.2001 19.625 18.4501 20.05 17.6001 20.05C16.7501 20.05 16.0001 19.625 16.0001 18.675V3.35C16.0001 2.4 16.7501 1.975 17.6001 1.975ZM34.7755 2.075H35.3005C36.7755 2.075 37.3005 2.375 38.2005 4.625L41.6255 13.175L44.9005 4.65C45.7255 2.475 46.3505 2.075 47.8255 2.075H48.3505C49.9505 2.075 50.4755 2.575 50.4755 4.15V18.75C50.4755 19.65 49.7755 20.05 48.9505 20.05C48.1755 20.05 47.4505 19.65 47.4505 18.75V4.875C47.1505 6.15 46.9005 6.875 46.6255 7.575L43.3255 15.7C42.9005 16.75 42.4755 17.025 41.6255 17.025C40.6005 17.025 40.1755 16.725 39.7505 15.625L36.5255 7.575C36.2505 6.9 36.0005 6.15 35.6505 4.875V18.75C35.6505 19.65 34.9255 20.05 34.1255 20.05C33.3755 20.05 32.6505 19.65 32.6505 18.75V4.15C32.6505 2.575 33.1755 2.075 34.7755 2.075ZM60.3005 9.3C60.3005 4.375 62.3255 1.7 66.3255 1.7C70.3255 1.7 72.3505 4.375 72.3505 9.3C72.3505 14.225 70.3255 16.9 66.3255 16.9C62.3255 16.9 60.3005 14.225 60.3005 9.3ZM69.2755 9.3C69.2755 6.15 68.5005 4.475 66.3255 4.475C64.1505 4.475 63.3755 6.15 63.3755 9.3C63.3755 12.45 64.1505 14.125 66.3255 14.125C68.5005 14.125 69.2755 12.45 69.2755 9.3ZM78.7005 1.775V20.925C78.7005 21.85 77.9255 22.275 77.0755 22.275C76.2505 22.275 75.4755 21.85 75.4755 20.925V1.775C75.4755 0.849999 76.2505 0.424999 77.0755 0.424999C77.9255 0.424999 78.7005 0.849999 78.7005 1.775ZM85.0294 16.3C83.4294 16.3 82.9044 15.8 82.9044 14.225V3.4C82.9044 2.475 83.6794 2.05 84.5044 2.05C85.3544 2.05 86.1294 2.475 86.1294 3.4V13C86.1294 13.425 86.2794 13.575 86.7044 13.575C88.1294 13.575 90.2294 13.475 91.8294 13.25C92.5794 13.15 93.0294 13.675 93.1044 14.425C93.1794 15.175 92.9294 15.825 92.2044 15.95C91.1294 16.125 88.7044 16.3 85.0294 16.3ZM97.0794 1.925V7.95H99.2294V1.675C99.2294 0.825 99.9544 0.424999 100.704 0.424999C101.454 0.424999 102.179 0.825 102.179 1.675V21.025C102.179 21.875 101.454 22.275 100.704 22.275C99.9544 22.275 99.2294 21.875 99.2294 21.025V10.65H97.0794V19.975C97.0794 20.825 96.3544 21.225 95.6044 21.225C94.8794 21.225 94.1544 20.825 94.1544 19.975V1.925C94.1544 1.075 94.8794 0.674998 95.6044 0.674998C96.3544 0.674998 97.0794 1.075 97.0794 1.925ZM112.808 12.925C108.708 12.925 106.583 10.575 106.583 7.325C106.583 4.075 108.708 1.725 112.808 1.725C116.908 1.725 119.033 4.075 119.033 7.325C119.033 10.575 116.908 12.925 112.808 12.925ZM112.808 4.375C110.633 4.375 109.608 5.6 109.608 7.325C109.608 9.05 110.633 10.275 112.808 10.275C114.983 10.275 116.008 9.05 116.008 7.325C116.008 5.6 114.983 4.375 112.808 4.375ZM119.533 17.95C116.208 18.25 111.258 18.425 106.458 18.425C105.683 18.425 105.333 17.8 105.333 17.05C105.333 16.325 105.683 15.7 106.458 15.7C110.708 15.7 115.108 15.65 119.308 15.275C120.083 15.2 120.458 15.75 120.508 16.475C120.558 17.2 120.283 17.875 119.533 17.95ZM121.483 20.925V1.775C121.483 0.849999 122.258 0.424999 123.083 0.424999C123.883 0.424999 124.658 0.849999 124.658 1.775V20.925C124.658 21.85 123.883 22.275 123.083 22.275C122.258 22.275 121.483 21.85 121.483 20.925ZM144.137 4.075V6.3H146.437V1.8C146.437 0.949999 147.162 0.549999 147.912 0.549999C148.637 0.549999 149.362 0.949999 149.362 1.8V15.2C149.362 16.05 148.637 16.45 147.912 16.45C147.162 16.45 146.437 16.05 146.437 15.2V8.975H144.137V11.225C144.137 12.8 143.612 13.3 142.012 13.3H136.637C135.037 13.3 134.512 12.8 134.512 11.225V4.075C134.512 2.5 135.037 2 136.637 2H142.012C143.612 2 144.137 2.5 144.137 4.075ZM153.362 23.425H140.387C138.787 23.425 138.262 22.925 138.262 21.35V16.625C138.262 15.7 139.037 15.275 139.887 15.275C140.712 15.275 141.487 15.7 141.487 16.625V20.125C141.487 20.55 141.637 20.7 142.062 20.7H153.362C154.137 20.7 154.487 21.325 154.487 22.075C154.487 22.8 154.137 23.425 153.362 23.425ZM150.987 16.225V1.675C150.987 0.825 151.712 0.424999 152.462 0.424999C153.212 0.424999 153.937 0.825 153.937 1.675V16.225C153.937 17.075 153.212 17.475 152.462 17.475C151.712 17.475 150.987 17.075 150.987 16.225ZM141.187 10.05V5.25C141.187 4.825 141.037 4.675 140.612 4.675H138.037C137.612 4.675 137.462 4.825 137.462 5.25V10.05C137.462 10.475 137.612 10.625 138.037 10.625H140.612C141.037 10.625 141.187 10.475 141.187 10.05ZM176.841 20.225H157.941C157.166 20.225 156.816 19.6 156.816 18.875C156.816 18.15 157.166 17.525 157.941 17.525H165.791V14.15H161.641C160.041 14.15 159.516 13.65 159.516 12.075V3.8C159.516 2.225 160.041 1.725 161.641 1.725H174.066C174.841 1.725 175.191 2.35 175.191 3.075C175.191 3.8 174.841 4.425 174.066 4.425H163.216C162.791 4.425 162.641 4.575 162.641 5V6.625H173.816C174.591 6.625 174.941 7.25 174.941 7.925C174.941 8.6 174.591 9.225 173.816 9.225H162.641V10.875C162.641 11.3 162.791 11.45 163.216 11.45H174.441C175.216 11.45 175.566 12.075 175.566 12.8C175.566 13.525 175.216 14.15 174.441 14.15H168.991V17.525H176.841C177.616 17.525 177.966 18.15 177.966 18.875C177.966 19.6 177.616 20.225 176.841 20.225ZM188.52 6.3C188.52 2.85 191.495 0.999999 196.395 0.999999C201.295 0.999999 204.27 2.85 204.27 6.3C204.27 9.75 201.295 11.6 196.395 11.6C191.495 11.6 188.52 9.75 188.52 6.3ZM201.07 6.3C201.07 4.775 199.72 3.7 196.395 3.7C193.07 3.7 191.72 4.775 191.72 6.3C191.72 7.825 193.07 8.9 196.395 8.9C199.72 8.9 201.07 7.825 201.07 6.3ZM198.37 16.125H194.42V22.575C194.42 23.5 193.67 23.9 192.895 23.9C192.095 23.9 191.345 23.5 191.345 22.575V16.125H186.945C186.17 16.125 185.82 15.5 185.82 14.8C185.82 14.075 186.17 13.45 186.945 13.45H205.845C206.62 13.45 206.97 14.075 206.97 14.8C206.97 15.5 206.62 16.125 205.845 16.125H201.445V22.575C201.445 23.5 200.695 23.9 199.92 23.9C199.12 23.9 198.37 23.5 198.37 22.575V16.125ZM220.849 4.875H217.399V6.875C217.399 9.025 217.849 10.2 219.224 11.625C220.174 12.6 221.124 13.5 221.824 14.1C222.449 14.65 222.249 15.55 221.749 16.075C221.249 16.575 220.424 16.8 219.824 16.275C219.224 15.75 218.399 14.95 217.499 14.05C216.199 12.75 215.899 12.175 215.799 11.7H215.774C215.649 12.275 215.349 12.825 214.049 14.125C213.149 15.025 212.249 15.9 211.349 16.675C210.699 17.225 209.824 16.875 209.374 16.375C208.874 15.8 208.799 14.925 209.424 14.375C210.424 13.5 211.374 12.6 212.324 11.625C213.699 10.2 214.149 9.025 214.149 6.875V4.875H210.499C209.724 4.875 209.374 4.25 209.374 3.525C209.374 2.775 209.724 2.15 210.499 2.15H220.849C221.624 2.15 221.974 2.775 221.974 3.525C221.974 4.25 221.624 4.875 220.849 4.875ZM224.699 10.3H221.574C220.799 10.3 220.449 9.675 220.449 8.95C220.449 8.2 220.799 7.575 221.574 7.575H224.699V1.775C224.699 0.849999 225.474 0.424999 226.299 0.424999C227.099 0.424999 227.874 0.849999 227.874 1.775V20.925C227.874 21.85 227.099 22.275 226.299 22.275C225.474 22.275 224.699 21.85 224.699 20.925V10.3ZM67.11 41.75H63.235C62.46 41.75 62.11 41.125 62.11 40.4C62.11 39.675 62.46 39.05 63.235 39.05H67.11V37.525C67.11 36.6 67.885 36.175 68.71 36.175C69.535 36.175 70.31 36.6 70.31 37.525V39.05H73.935C74.71 39.05 75.06 39.675 75.06 40.4C75.06 41.125 74.71 41.75 73.935 41.75H70.31V42.325C70.31 43.575 70.735 44.35 71.71 45.05C72.885 45.875 73.885 46.525 74.485 46.9C75.185 47.325 75.26 48.2 74.86 48.825C74.51 49.35 73.71 49.775 72.91 49.275C72.235 48.85 71.36 48.275 70.56 47.725C69.31 46.85 68.885 46.375 68.76 45.95H68.735C68.61 46.5 68.11 47.025 66.86 47.9C65.86 48.575 65.01 49.15 63.985 49.775C63.26 50.225 62.46 49.775 62.135 49.225C61.76 48.6 61.71 47.75 62.485 47.275C63.535 46.625 64.535 45.975 65.71 45.15C66.685 44.45 67.11 43.675 67.11 42.425V41.75ZM79.835 41.8H82.185C82.985 41.8 83.335 42.425 83.335 43.175C83.335 43.95 82.985 44.575 82.185 44.575H79.835V48.75C79.835 49.675 79.06 50.1 78.235 50.1C77.41 50.1 76.635 49.675 76.635 48.75V37.775C76.635 36.85 77.41 36.425 78.235 36.425C79.06 36.425 79.835 36.85 79.835 37.775V41.8ZM79.185 53.75H74.035V53.85C74.035 54.6 74.685 55.125 75.885 55.6C77.435 56.225 78.535 56.625 79.96 57.075C80.635 57.3 80.86 58.05 80.61 58.7C80.36 59.325 79.81 59.775 79.01 59.525C77.685 59.1 76.485 58.675 75.185 58.15C73.185 57.35 72.61 56.675 72.46 56.225H72.435C72.31 56.725 71.685 57.425 69.685 58.225C68.385 58.75 67.185 59.175 65.86 59.6C65.06 59.85 64.51 59.4 64.26 58.75C64.01 58.075 64.21 57.3 64.91 57.075C66.335 56.625 67.435 56.225 68.985 55.6C70.185 55.125 70.835 54.6 70.835 53.85V53.75H65.685C64.935 53.75 64.585 53.15 64.585 52.45C64.585 51.725 64.935 51.125 65.685 51.125H79.185C79.935 51.125 80.285 51.725 80.285 52.45C80.285 53.15 79.935 53.75 79.185 53.75ZM91.0639 43.125H102.189C102.964 43.125 103.314 43.75 103.314 44.475C103.314 45.2 102.964 45.825 102.189 45.825H89.3889C87.7889 45.825 87.2639 45.325 87.2639 43.75V38.35C87.2639 37.425 88.0389 37 88.8889 37C89.7139 37 90.4889 37.425 90.4889 38.35V42.55C90.4889 42.975 90.6389 43.125 91.0639 43.125ZM104.539 50.675H85.6389C84.8639 50.675 84.5139 50.05 84.5139 49.325C84.5139 48.6 84.8639 47.975 85.6389 47.975H104.539C105.314 47.975 105.664 48.6 105.664 49.325C105.664 50.05 105.314 50.675 104.539 50.675ZM91.0139 56.825H102.239C103.014 56.825 103.364 57.45 103.364 58.175C103.364 58.9 103.014 59.525 102.239 59.525H89.3389C87.7389 59.525 87.2139 59.025 87.2139 57.45V53.575C87.2139 52.65 87.9889 52.225 88.8389 52.225C89.6639 52.225 90.4389 52.65 90.4389 53.575V56.25C90.4389 56.675 90.5889 56.825 91.0139 56.825ZM116.218 55.725C116.218 53 118.543 51.625 122.518 51.35V49.65H114.618C113.868 49.65 113.518 49.05 113.518 48.325C113.518 47.6 113.868 47 114.618 47H133.568C134.318 47 134.668 47.6 134.668 48.325C134.668 49.05 134.318 49.65 133.568 49.65H125.668V51.35C129.618 51.625 131.968 53 131.968 55.725C131.968 58.8 128.993 60.15 124.093 60.15C119.193 60.15 116.218 58.8 116.218 55.725ZM122.468 39.85H117.143C116.393 39.85 116.043 39.25 116.043 38.525C116.043 37.8 116.393 37.2 117.143 37.2H131.043C131.793 37.2 132.143 37.8 132.143 38.525C132.143 39.25 131.793 39.85 131.043 39.85H125.718V40.025C125.718 40.825 126.268 41.375 127.743 41.925C129.343 42.525 130.718 43 132.018 43.4C132.718 43.625 132.943 44.45 132.693 45.1C132.418 45.8 131.768 46.15 130.968 45.925C129.868 45.6 128.443 45.1 127.143 44.625C124.868 43.8 124.343 43.225 124.118 42.625H124.093C123.893 43.25 123.318 43.875 121.043 44.7C119.743 45.175 118.318 45.675 117.218 46C116.418 46.225 115.768 45.875 115.493 45.15C115.243 44.5 115.443 43.625 116.168 43.4C117.468 43 118.843 42.525 120.443 41.925C121.918 41.375 122.468 40.825 122.468 40.025V39.85ZM128.793 55.725C128.793 54.525 127.443 53.825 124.093 53.825C120.743 53.825 119.393 54.525 119.393 55.725C119.393 56.925 120.743 57.625 124.093 57.625C127.443 57.625 128.793 56.925 128.793 55.725ZM138.822 53.2C139.947 53.2 140.797 54.05 140.797 55.175C140.797 56.3 139.947 57.15 138.822 57.15C137.697 57.15 136.847 56.3 136.847 55.175C136.847 54.05 137.697 53.2 138.822 53.2ZM151.761 53.2C152.886 53.2 153.736 54.05 153.736 55.175C153.736 56.3 152.886 57.15 151.761 57.15C150.636 57.15 149.786 56.3 149.786 55.175C149.786 54.05 150.636 53.2 151.761 53.2ZM164.701 53.2C165.826 53.2 166.676 54.05 166.676 55.175C166.676 56.3 165.826 57.15 164.701 57.15C163.576 57.15 162.726 56.3 162.726 55.175C162.726 54.05 163.576 53.2 164.701 53.2Z" fill="black"/>
</svg>
