<svg width="229" height="61" viewBox="0 0 229 61" fill="none" xmlns="http://www.w3.org/2000/svg">
<path d="M6.97217 1.85C11.0472 1.85 12.8222 4 12.8222 6.425V6.7C12.8222 8.6 11.8972 10.35 10.2222 12.025L4.94717 17.25H12.5222C13.2972 17.25 13.6472 17.85 13.6472 18.575C13.6472 19.3 13.2972 19.9 12.5222 19.9H2.99717C1.42217 19.9 0.747168 19.35 0.747168 18.175C0.747168 17.65 1.04717 17.2 1.57217 16.65L7.37217 10.8C9.22217 8.95 9.59717 8 9.59717 6.725V6.6C9.59717 5.5 8.74717 4.7 7.02217 4.7C5.54717 4.7 4.62217 5.275 3.74717 6.4C3.27217 7.025 2.49717 7.15 1.84717 6.675C1.19717 6.2 0.922168 5.45 1.42217 4.7C2.52217 3.075 4.34717 1.85 6.97217 1.85ZM18.6001 1.975C19.4501 1.975 20.2001 2.4 20.2001 3.35V10.25L27.5251 2.375C28.0751 1.775 29.0001 1.9 29.5251 2.45C30.0751 3.025 30.2001 3.85 29.6501 4.425L24.1001 10.2L30.2251 17.5C30.8751 18.25 30.7001 19.1 30.0001 19.65C29.3501 20.175 28.4501 20.25 27.8501 19.5L22.0251 12.225L20.2001 14.1V18.675C20.2001 19.625 19.4501 20.05 18.6001 20.05C17.7501 20.05 17.0001 19.625 17.0001 18.675V3.35C17.0001 2.4 17.7501 1.975 18.6001 1.975ZM35.7755 2.075H36.3005C37.7755 2.075 38.3005 2.375 39.2005 4.625L42.6255 13.175L45.9005 4.65C46.7255 2.475 47.3505 2.075 48.8255 2.075H49.3505C50.9505 2.075 51.4755 2.575 51.4755 4.15V18.75C51.4755 19.65 50.7755 20.05 49.9505 20.05C49.1755 20.05 48.4505 19.65 48.4505 18.75V4.875C48.1505 6.15 47.9005 6.875 47.6255 7.575L44.3255 15.7C43.9005 16.75 43.4755 17.025 42.6255 17.025C41.6005 17.025 41.1755 16.725 40.7505 15.625L37.5255 7.575C37.2505 6.9 37.0005 6.15 36.6505 4.875V18.75C36.6505 19.65 35.9255 20.05 35.1255 20.05C34.3755 20.05 33.6505 19.65 33.6505 18.75V4.15C33.6505 2.575 34.1755 2.075 35.7755 2.075ZM61.3005 9.3C61.3005 4.375 63.3255 1.7 67.3255 1.7C71.3255 1.7 73.3505 4.375 73.3505 9.3C73.3505 14.225 71.3255 16.9 67.3255 16.9C63.3255 16.9 61.3005 14.225 61.3005 9.3ZM70.2755 9.3C70.2755 6.15 69.5005 4.475 67.3255 4.475C65.1505 4.475 64.3755 6.15 64.3755 9.3C64.3755 12.45 65.1505 14.125 67.3255 14.125C69.5005 14.125 70.2755 12.45 70.2755 9.3ZM79.7005 1.775V20.925C79.7005 21.85 78.9255 22.275 78.0755 22.275C77.2505 22.275 76.4755 21.85 76.4755 20.925V1.775C76.4755 0.849999 77.2505 0.424999 78.0755 0.424999C78.9255 0.424999 79.7005 0.849999 79.7005 1.775ZM86.0294 16.3C84.4294 16.3 83.9044 15.8 83.9044 14.225V3.4C83.9044 2.475 84.6794 2.05 85.5044 2.05C86.3544 2.05 87.1294 2.475 87.1294 3.4V13C87.1294 13.425 87.2794 13.575 87.7044 13.575C89.1294 13.575 91.2294 13.475 92.8294 13.25C93.5794 13.15 94.0294 13.675 94.1044 14.425C94.1794 15.175 93.9294 15.825 93.2044 15.95C92.1294 16.125 89.7044 16.3 86.0294 16.3ZM98.0794 1.925V7.95H100.229V1.675C100.229 0.825 100.954 0.424999 101.704 0.424999C102.454 0.424999 103.179 0.825 103.179 1.675V21.025C103.179 21.875 102.454 22.275 101.704 22.275C100.954 22.275 100.229 21.875 100.229 21.025V10.65H98.0794V19.975C98.0794 20.825 97.3544 21.225 96.6044 21.225C95.8794 21.225 95.1544 20.825 95.1544 19.975V1.925C95.1544 1.075 95.8794 0.674998 96.6044 0.674998C97.3544 0.674998 98.0794 1.075 98.0794 1.925ZM113.808 12.925C109.708 12.925 107.583 10.575 107.583 7.325C107.583 4.075 109.708 1.725 113.808 1.725C117.908 1.725 120.033 4.075 120.033 7.325C120.033 10.575 117.908 12.925 113.808 12.925ZM113.808 4.375C111.633 4.375 110.608 5.6 110.608 7.325C110.608 9.05 111.633 10.275 113.808 10.275C115.983 10.275 117.008 9.05 117.008 7.325C117.008 5.6 115.983 4.375 113.808 4.375ZM120.533 17.95C117.208 18.25 112.258 18.425 107.458 18.425C106.683 18.425 106.333 17.8 106.333 17.05C106.333 16.325 106.683 15.7 107.458 15.7C111.708 15.7 116.108 15.65 120.308 15.275C121.083 15.2 121.458 15.75 121.508 16.475C121.558 17.2 121.283 17.875 120.533 17.95ZM122.483 20.925V1.775C122.483 0.849999 123.258 0.424999 124.083 0.424999C124.883 0.424999 125.658 0.849999 125.658 1.775V20.925C125.658 21.85 124.883 22.275 124.083 22.275C123.258 22.275 122.483 21.85 122.483 20.925ZM145.137 4.075V6.3H147.437V1.8C147.437 0.949999 148.162 0.549999 148.912 0.549999C149.637 0.549999 150.362 0.949999 150.362 1.8V15.2C150.362 16.05 149.637 16.45 148.912 16.45C148.162 16.45 147.437 16.05 147.437 15.2V8.975H145.137V11.225C145.137 12.8 144.612 13.3 143.012 13.3H137.637C136.037 13.3 135.512 12.8 135.512 11.225V4.075C135.512 2.5 136.037 2 137.637 2H143.012C144.612 2 145.137 2.5 145.137 4.075ZM154.362 23.425H141.387C139.787 23.425 139.262 22.925 139.262 21.35V16.625C139.262 15.7 140.037 15.275 140.887 15.275C141.712 15.275 142.487 15.7 142.487 16.625V20.125C142.487 20.55 142.637 20.7 143.062 20.7H154.362C155.137 20.7 155.487 21.325 155.487 22.075C155.487 22.8 155.137 23.425 154.362 23.425ZM151.987 16.225V1.675C151.987 0.825 152.712 0.424999 153.462 0.424999C154.212 0.424999 154.937 0.825 154.937 1.675V16.225C154.937 17.075 154.212 17.475 153.462 17.475C152.712 17.475 151.987 17.075 151.987 16.225ZM142.187 10.05V5.25C142.187 4.825 142.037 4.675 141.612 4.675H139.037C138.612 4.675 138.462 4.825 138.462 5.25V10.05C138.462 10.475 138.612 10.625 139.037 10.625H141.612C142.037 10.625 142.187 10.475 142.187 10.05ZM177.841 20.225H158.941C158.166 20.225 157.816 19.6 157.816 18.875C157.816 18.15 158.166 17.525 158.941 17.525H166.791V14.15H162.641C161.041 14.15 160.516 13.65 160.516 12.075V3.8C160.516 2.225 161.041 1.725 162.641 1.725H175.066C175.841 1.725 176.191 2.35 176.191 3.075C176.191 3.8 175.841 4.425 175.066 4.425H164.216C163.791 4.425 163.641 4.575 163.641 5V6.625H174.816C175.591 6.625 175.941 7.25 175.941 7.925C175.941 8.6 175.591 9.225 174.816 9.225H163.641V10.875C163.641 11.3 163.791 11.45 164.216 11.45H175.441C176.216 11.45 176.566 12.075 176.566 12.8C176.566 13.525 176.216 14.15 175.441 14.15H169.991V17.525H177.841C178.616 17.525 178.966 18.15 178.966 18.875C178.966 19.6 178.616 20.225 177.841 20.225ZM189.52 6.3C189.52 2.85 192.495 0.999999 197.395 0.999999C202.295 0.999999 205.27 2.85 205.27 6.3C205.27 9.75 202.295 11.6 197.395 11.6C192.495 11.6 189.52 9.75 189.52 6.3ZM202.07 6.3C202.07 4.775 200.72 3.7 197.395 3.7C194.07 3.7 192.72 4.775 192.72 6.3C192.72 7.825 194.07 8.9 197.395 8.9C200.72 8.9 202.07 7.825 202.07 6.3ZM199.37 16.125H195.42V22.575C195.42 23.5 194.67 23.9 193.895 23.9C193.095 23.9 192.345 23.5 192.345 22.575V16.125H187.945C187.17 16.125 186.82 15.5 186.82 14.8C186.82 14.075 187.17 13.45 187.945 13.45H206.845C207.62 13.45 207.97 14.075 207.97 14.8C207.97 15.5 207.62 16.125 206.845 16.125H202.445V22.575C202.445 23.5 201.695 23.9 200.92 23.9C200.12 23.9 199.37 23.5 199.37 22.575V16.125ZM221.849 4.875H218.399V6.875C218.399 9.025 218.849 10.2 220.224 11.625C221.174 12.6 222.124 13.5 222.824 14.1C223.449 14.65 223.249 15.55 222.749 16.075C222.249 16.575 221.424 16.8 220.824 16.275C220.224 15.75 219.399 14.95 218.499 14.05C217.199 12.75 216.899 12.175 216.799 11.7H216.774C216.649 12.275 216.349 12.825 215.049 14.125C214.149 15.025 213.249 15.9 212.349 16.675C211.699 17.225 210.824 16.875 210.374 16.375C209.874 15.8 209.799 14.925 210.424 14.375C211.424 13.5 212.374 12.6 213.324 11.625C214.699 10.2 215.149 9.025 215.149 6.875V4.875H211.499C210.724 4.875 210.374 4.25 210.374 3.525C210.374 2.775 210.724 2.15 211.499 2.15H221.849C222.624 2.15 222.974 2.775 222.974 3.525C222.974 4.25 222.624 4.875 221.849 4.875ZM225.699 10.3H222.574C221.799 10.3 221.449 9.675 221.449 8.95C221.449 8.2 221.799 7.575 222.574 7.575H225.699V1.775C225.699 0.849999 226.474 0.424999 227.299 0.424999C228.099 0.424999 228.874 0.849999 228.874 1.775V20.925C228.874 21.85 228.099 22.275 227.299 22.275C226.474 22.275 225.699 21.85 225.699 20.925V10.3ZM68.11 41.75H64.235C63.46 41.75 63.11 41.125 63.11 40.4C63.11 39.675 63.46 39.05 64.235 39.05H68.11V37.525C68.11 36.6 68.885 36.175 69.71 36.175C70.535 36.175 71.31 36.6 71.31 37.525V39.05H74.935C75.71 39.05 76.06 39.675 76.06 40.4C76.06 41.125 75.71 41.75 74.935 41.75H71.31V42.325C71.31 43.575 71.735 44.35 72.71 45.05C73.885 45.875 74.885 46.525 75.485 46.9C76.185 47.325 76.26 48.2 75.86 48.825C75.51 49.35 74.71 49.775 73.91 49.275C73.235 48.85 72.36 48.275 71.56 47.725C70.31 46.85 69.885 46.375 69.76 45.95H69.735C69.61 46.5 69.11 47.025 67.86 47.9C66.86 48.575 66.01 49.15 64.985 49.775C64.26 50.225 63.46 49.775 63.135 49.225C62.76 48.6 62.71 47.75 63.485 47.275C64.535 46.625 65.535 45.975 66.71 45.15C67.685 44.45 68.11 43.675 68.11 42.425V41.75ZM80.835 41.8H83.185C83.985 41.8 84.335 42.425 84.335 43.175C84.335 43.95 83.985 44.575 83.185 44.575H80.835V48.75C80.835 49.675 80.06 50.1 79.235 50.1C78.41 50.1 77.635 49.675 77.635 48.75V37.775C77.635 36.85 78.41 36.425 79.235 36.425C80.06 36.425 80.835 36.85 80.835 37.775V41.8ZM80.185 53.75H75.035V53.85C75.035 54.6 75.685 55.125 76.885 55.6C78.435 56.225 79.535 56.625 80.96 57.075C81.635 57.3 81.86 58.05 81.61 58.7C81.36 59.325 80.81 59.775 80.01 59.525C78.685 59.1 77.485 58.675 76.185 58.15C74.185 57.35 73.61 56.675 73.46 56.225H73.435C73.31 56.725 72.685 57.425 70.685 58.225C69.385 58.75 68.185 59.175 66.86 59.6C66.06 59.85 65.51 59.4 65.26 58.75C65.01 58.075 65.21 57.3 65.91 57.075C67.335 56.625 68.435 56.225 69.985 55.6C71.185 55.125 71.835 54.6 71.835 53.85V53.75H66.685C65.935 53.75 65.585 53.15 65.585 52.45C65.585 51.725 65.935 51.125 66.685 51.125H80.185C80.935 51.125 81.285 51.725 81.285 52.45C81.285 53.15 80.935 53.75 80.185 53.75ZM92.0639 43.125H103.189C103.964 43.125 104.314 43.75 104.314 44.475C104.314 45.2 103.964 45.825 103.189 45.825H90.3889C88.7889 45.825 88.2639 45.325 88.2639 43.75V38.35C88.2639 37.425 89.0389 37 89.8889 37C90.7139 37 91.4889 37.425 91.4889 38.35V42.55C91.4889 42.975 91.6389 43.125 92.0639 43.125ZM105.539 50.675H86.6389C85.8639 50.675 85.5139 50.05 85.5139 49.325C85.5139 48.6 85.8639 47.975 86.6389 47.975H105.539C106.314 47.975 106.664 48.6 106.664 49.325C106.664 50.05 106.314 50.675 105.539 50.675ZM92.0139 56.825H103.239C104.014 56.825 104.364 57.45 104.364 58.175C104.364 58.9 104.014 59.525 103.239 59.525H90.3389C88.7389 59.525 88.2139 59.025 88.2139 57.45V53.575C88.2139 52.65 88.9889 52.225 89.8389 52.225C90.6639 52.225 91.4389 52.65 91.4389 53.575V56.25C91.4389 56.675 91.5889 56.825 92.0139 56.825ZM117.218 55.725C117.218 53 119.543 51.625 123.518 51.35V49.65H115.618C114.868 49.65 114.518 49.05 114.518 48.325C114.518 47.6 114.868 47 115.618 47H134.568C135.318 47 135.668 47.6 135.668 48.325C135.668 49.05 135.318 49.65 134.568 49.65H126.668V51.35C130.618 51.625 132.968 53 132.968 55.725C132.968 58.8 129.993 60.15 125.093 60.15C120.193 60.15 117.218 58.8 117.218 55.725ZM123.468 39.85H118.143C117.393 39.85 117.043 39.25 117.043 38.525C117.043 37.8 117.393 37.2 118.143 37.2H132.043C132.793 37.2 133.143 37.8 133.143 38.525C133.143 39.25 132.793 39.85 132.043 39.85H126.718V40.025C126.718 40.825 127.268 41.375 128.743 41.925C130.343 42.525 131.718 43 133.018 43.4C133.718 43.625 133.943 44.45 133.693 45.1C133.418 45.8 132.768 46.15 131.968 45.925C130.868 45.6 129.443 45.1 128.143 44.625C125.868 43.8 125.343 43.225 125.118 42.625H125.093C124.893 43.25 124.318 43.875 122.043 44.7C120.743 45.175 119.318 45.675 118.218 46C117.418 46.225 116.768 45.875 116.493 45.15C116.243 44.5 116.443 43.625 117.168 43.4C118.468 43 119.843 42.525 121.443 41.925C122.918 41.375 123.468 40.825 123.468 40.025V39.85ZM129.793 55.725C129.793 54.525 128.443 53.825 125.093 53.825C121.743 53.825 120.393 54.525 120.393 55.725C120.393 56.925 121.743 57.625 125.093 57.625C128.443 57.625 129.793 56.925 129.793 55.725ZM139.822 53.2C140.947 53.2 141.797 54.05 141.797 55.175C141.797 56.3 140.947 57.15 139.822 57.15C138.697 57.15 137.847 56.3 137.847 55.175C137.847 54.05 138.697 53.2 139.822 53.2ZM152.761 53.2C153.886 53.2 154.736 54.05 154.736 55.175C154.736 56.3 153.886 57.15 152.761 57.15C151.636 57.15 150.786 56.3 150.786 55.175C150.786 54.05 151.636 53.2 152.761 53.2ZM165.701 53.2C166.826 53.2 167.676 54.05 167.676 55.175C167.676 56.3 166.826 57.15 165.701 57.15C164.576 57.15 163.726 56.3 163.726 55.175C163.726 54.05 164.576 53.2 165.701 53.2Z" fill="black"/>
</svg>
