<svg width="253" height="199" viewBox="0 0 253 199" fill="none" xmlns="http://www.w3.org/2000/svg">
<g clip-path="url(#clip0_1_5369)">
<path d="M6.69897 198.561C6.69897 198.804 6.87739 199 7.09956 199H252.599C252.822 199 253 198.804 253 198.561C253 198.317 252.822 198.122 252.599 198.122H7.09956C6.87739 198.122 6.69897 198.317 6.69897 198.561Z" fill="#3F3D58"/>
<path d="M85.3118 35.1023H6.57434C3.57161 35.1023 1.12769 32.4239 1.12769 29.1332C1.12769 25.8425 3.57161 23.1642 6.57434 23.1642H85.3118C88.3145 23.1642 90.7584 25.8425 90.7584 29.1332C90.7584 32.4239 88.3145 35.1023 85.3118 35.1023ZM6.57434 23.902C3.9419 23.902 1.80094 26.2483 1.80094 29.1332C1.80094 32.0181 3.9419 34.3644 6.57434 34.3644H85.3118C87.9442 34.3644 90.0852 32.0181 90.0852 29.1332C90.0852 26.2483 87.9442 23.902 85.3118 23.902H6.57434Z" fill="#E2E3E4"/>
<path d="M85.3117 104.956H6.57424C3.6624 104.956 1.2959 102.363 1.2959 99.1717C1.2959 95.9806 3.6624 93.3871 6.57424 93.3871H85.3117C88.2235 93.3871 90.59 95.9806 90.59 99.1717C90.59 102.363 88.2235 104.956 85.3117 104.956Z" fill="#089885"/>
<path d="M59.5092 11.5692H5.27834C2.3665 11.5692 0 8.9757 0 5.78458C0 2.59347 2.3665 0 5.27834 0H59.5092C62.4211 0 64.7876 2.59347 64.7876 5.78458C64.7876 8.9757 62.4211 11.5692 59.5092 11.5692Z" fill="#E2E3E4"/>
<path d="M85.3118 58.4471H6.57434C3.57161 58.4471 1.12769 55.7688 1.12769 52.4781C1.12769 49.1874 3.57161 46.509 6.57434 46.509H85.3118C88.3145 46.509 90.7584 49.1874 90.7584 52.4781C90.7584 55.7688 88.3145 58.4471 85.3118 58.4471ZM6.57434 47.2469C3.9419 47.2469 1.80094 49.5932 1.80094 52.4781C1.80094 55.363 3.9419 57.7093 6.57434 57.7093H85.3118C87.9442 57.7093 90.0852 55.363 90.0852 52.4781C90.0852 49.5932 87.9442 47.2469 85.3118 47.2469H6.57434Z" fill="#E2E3E4"/>
<path d="M85.3118 81.7957H6.57434C3.57161 81.7957 1.12769 79.1174 1.12769 75.8267C1.12769 72.536 3.57161 69.8577 6.57434 69.8577H85.3118C88.3145 69.8577 90.7584 72.536 90.7584 75.8267C90.7584 79.1174 88.3145 81.7957 85.3118 81.7957ZM6.57434 70.5955C3.9419 70.5955 1.80094 72.9418 1.80094 75.8267C1.80094 78.7116 3.9419 81.0579 6.57434 81.0579H85.3118C87.9442 81.0579 90.0852 78.7116 90.0852 75.8267C90.0852 72.9418 87.9442 70.5955 85.3118 70.5955H6.57434Z" fill="#E2E3E4"/>
<path d="M3.8679 18.8773H24.5032C24.9947 18.8773 25.3953 19.3126 25.3953 19.8549C25.3953 20.3936 24.9947 20.8326 24.5032 20.8326H3.8679C3.37642 20.8326 2.97583 20.3972 2.97583 19.8549C2.97583 19.3163 3.37642 18.8773 3.8679 18.8773Z" fill="#E2E3E4"/>
<path d="M3.8679 42.7756H24.5032C24.9947 42.7756 25.3953 43.211 25.3953 43.7496C25.3953 44.2882 24.9947 44.7272 24.5032 44.7272H3.8679C3.37642 44.7272 2.97583 44.2919 2.97583 43.7533C2.97583 43.2146 3.37642 42.7756 3.8679 42.7756Z" fill="#E2E3E4"/>
<path d="M3.8679 66.6776H24.5032C24.9947 66.6776 25.3953 67.1129 25.3953 67.6552C25.3953 68.1938 24.9947 68.6292 24.5032 68.6292H3.8679C3.37642 68.6292 2.97583 68.1939 2.97583 67.6515C2.97583 67.1129 3.37642 66.6776 3.8679 66.6776Z" fill="#E2E3E4"/>
<path d="M150.5 48.7927L142.973 51.5079V39.6326H149.803L150.5 48.7927Z" fill="#9F616A"/>
<path d="M143.905 42.9196C148.048 42.9196 151.406 39.2396 151.406 34.7001C151.406 30.1607 148.048 26.4807 143.905 26.4807C139.763 26.4807 136.405 30.1607 136.405 34.7001C136.405 39.2396 139.763 42.9196 143.905 42.9196Z" fill="#FFB8B8"/>
<path d="M145.966 33.8849C144.71 33.8443 143.885 32.4535 143.397 31.1844C142.909 29.9153 142.407 28.4581 141.243 27.9343C140.29 27.5063 138.61 30.4023 137.86 29.6313C137.075 28.827 137.839 24.6989 138.671 23.9574C139.502 23.2158 140.64 23.072 141.711 23.0166C144.323 22.8838 146.952 23.1162 149.514 23.7028C151.099 24.0644 152.729 24.6103 153.873 25.8647C155.321 27.4584 155.691 29.86 155.795 32.1067C155.903 34.405 155.782 36.8104 154.762 38.8209C153.742 40.8315 151.608 42.3146 149.561 41.8018C149.356 40.5844 149.564 39.3337 149.645 38.0942C149.722 36.8583 149.642 35.5228 148.952 34.5378C148.265 33.5528 146.79 33.1618 145.989 34.0361" fill="#2F2E43"/>
<path d="M155.193 36.7329C155.943 36.1315 156.842 35.6261 157.764 35.7516C158.761 35.8844 159.606 36.7845 159.862 37.8507C160.117 38.9169 159.831 40.09 159.212 40.9606C158.596 41.8313 157.677 42.4068 156.707 42.6945C156.145 42.8606 155.529 42.9306 154.994 42.6798C154.206 42.3072 153.779 41.2041 154.088 40.3261" fill="#2F2E43"/>
<path d="M126.492 114.069C125.99 116.769 126.909 119.237 128.538 119.58C130.168 119.923 131.895 118.009 132.393 115.308C132.605 114.231 132.571 113.117 132.295 112.054L138.499 69.7213L130.74 68.1202L127.744 111.099C127.108 111.969 126.68 112.988 126.492 114.072V114.069Z" fill="#FFB8B8"/>
<path d="M142.892 46.0591H137.597C133.854 46.6825 132.837 48.8702 131.985 52.9135C130.686 59.0818 129.026 67.2938 129.356 67.4156C129.885 67.6074 138.9 72.2557 143.495 71.1932L142.892 46.0591Z" fill="#E2E3E4"/>
<path d="M148.012 180.901H140.963V191.862H148.012V180.901Z" fill="#FFB8B8"/>
<path d="M134.099 198.495C133.359 198.495 132.699 198.476 132.201 198.425C130.329 198.236 128.542 196.72 127.643 195.835C127.239 195.436 127.111 194.802 127.32 194.256C127.471 193.865 127.771 193.57 128.145 193.455L133.093 191.906L141.105 185.981L141.196 186.158C141.229 186.225 142.017 187.778 142.28 188.825C142.381 189.224 142.354 189.556 142.202 189.814C142.098 189.991 141.95 190.094 141.832 190.154C141.977 190.32 142.431 190.659 143.831 190.902C145.875 191.257 146.306 188.936 146.322 188.84L146.336 188.763L146.397 188.718C147.369 188.032 147.969 187.719 148.174 187.785C148.302 187.826 148.517 187.899 149.1 194.219C149.157 194.418 149.564 195.872 149.288 197.263C148.989 198.775 142.956 198.255 141.748 198.137C141.714 198.141 137.196 198.495 134.103 198.495H134.099Z" fill="#2F2E43"/>
<path d="M168.084 172.29L162.103 176.378L167.395 185.678L173.377 181.59L168.084 172.29Z" fill="#FFB8B8"/>
<path d="M160.141 196.993C159.313 196.993 158.552 196.883 158.01 196.779C157.478 196.676 157.061 196.211 156.973 195.628C156.913 195.208 157.024 194.783 157.286 194.47L160.737 190.286L164.675 180.613L164.837 180.709C164.898 180.746 166.315 181.606 167.045 182.344C167.325 182.624 167.463 182.923 167.456 183.229C167.453 183.443 167.378 183.613 167.304 183.734C167.506 183.793 168.055 183.816 169.361 183.211C171.267 182.329 170.513 180.108 170.479 180.016L170.452 179.942L170.482 179.872C170.977 178.725 171.331 178.112 171.539 178.049C171.671 178.009 171.886 177.946 175.431 182.974C175.575 183.107 176.622 184.107 177.06 185.446C177.535 186.903 172.165 189.962 171.085 190.559C171.051 190.589 165.433 195.064 163.124 196.337C162.208 196.842 161.124 196.997 160.138 196.997L160.141 196.993Z" fill="#2F2E43"/>
<path d="M153.203 89.2443H133.467L131.676 109.365L139.512 183.709H149.588L145.558 140.771L161.902 179.536L170.856 172.667L158.094 136.476C158.094 136.476 162.652 104.949 159.07 97.0948C155.489 89.2443 153.203 89.2443 153.203 89.2443Z" fill="#2F2E43"/>
<path d="M163.023 90.469H131.676L141.081 46.0591H154.738L163.023 90.469Z" fill="#E2E3E4"/>
<path d="M165.843 114.068C166.345 116.769 165.426 119.237 163.797 119.58C162.167 119.923 160.441 118.008 159.942 115.308C159.73 114.231 159.764 113.117 160.04 112.054L153.836 69.7212L161.595 68.1201L164.591 111.099C165.227 111.969 165.655 112.988 165.843 114.072V114.068Z" fill="#FFB8B8"/>
<path d="M149.443 46.0591H154.738C158.482 46.6825 159.498 48.8702 160.35 52.9135C161.649 59.0818 163.309 67.2938 162.979 67.4156C162.45 67.6074 153.435 72.2557 148.84 71.1932L149.443 46.0591Z" fill="#E2E3E4"/>
</g>
<defs>
<clipPath id="clip0_1_5369">
<rect width="253" height="199" fill="white"/>
</clipPath>
</defs>
</svg>
