<svg width="203" height="203" viewBox="0 0 203 203" fill="none" xmlns="http://www.w3.org/2000/svg">
<g clip-path="url(#clip0_1_5145)">
<circle cx="101.5" cy="101.5" r="101.5" fill="#D9D9D9"/>
<path d="M144.691 144.637H93.9409V75.9532L137.822 99.9927L144.691 144.637Z" fill="#2F2E41"/>
<path d="M103.316 132.515C121.514 132.515 136.265 117.763 136.265 99.5663C136.265 81.3691 121.514 66.6173 103.316 66.6173C85.1191 66.6173 70.3674 81.3691 70.3674 99.5663C70.3674 117.763 85.1191 132.515 103.316 132.515Z" fill="#FFB6B6"/>
<path d="M84.4015 137.387L82.9129 122.34L112.638 116.782L130.191 159.519L99.6646 194.624L77.9146 151.887L84.4015 137.387Z" fill="#FFB6B6"/>
<path d="M174.397 172.126C174.027 172.512 173.649 172.893 173.271 173.271C172.073 174.469 170.852 175.633 169.604 176.763C150.907 193.72 126.917 203 101.5 203C78.0673 203 55.8479 195.113 37.8717 180.594C37.8603 180.586 37.8527 180.578 37.8412 180.567C37.2955 180.128 36.7575 179.682 36.2195 179.228C36.3149 178.953 36.4179 178.682 36.5209 178.415C42.3019 163.354 53.7187 155.986 60.6482 152.761C64.0824 151.162 66.4138 150.579 66.4138 150.579L74.5491 135.926L80.2766 146.61L84.4969 154.486L101.813 186.794L116.752 149.598L121.38 138.067L122.567 135.113L128.211 139.505L133.553 143.661L144.309 146.034L153.036 147.961L164.888 150.579C169.681 154.482 172.596 161.908 174.225 171.134C174.286 171.462 174.343 171.794 174.397 172.126Z" fill="#089885"/>
<path d="M85.9848 62.1222C89.9983 55.3805 97.3695 50.7549 105.186 50.0731C113.002 49.3913 121.063 52.6709 126.183 58.616C129.234 62.1587 131.235 66.4974 134.209 70.105C140.608 77.8684 151.522 82.4076 154.317 92.0727C155.537 96.2903 154.929 100.793 154.312 105.14C153.783 108.866 153.254 112.591 152.725 116.317C152.313 119.217 151.918 122.273 153.005 124.993C154.281 128.183 157.333 130.273 159.307 133.085C162.665 137.871 162.42 144.877 158.735 149.416C157.137 151.384 155.018 152.869 153.343 154.772C151.667 156.675 150.425 159.277 151.126 161.713C152.471 166.38 159.79 167.499 160.593 172.289C161.003 174.738 159.312 177.184 157.095 178.304C154.879 179.424 152.27 179.456 149.805 179.157C140.436 178.018 131.761 172.164 127.199 163.901C122.638 155.639 122.306 145.179 126.334 136.644C129.642 129.634 135.791 123.439 135.724 115.688C135.688 111.465 133.751 107.521 131.857 103.746C127.98 96.0209 124.104 88.2955 120.227 80.5702C118.151 76.432 115.741 71.9725 111.466 70.1948C108.162 68.8209 104.413 69.3538 100.879 69.9157C97.3452 70.4777 93.6018 71.0247 90.288 69.6746C86.9742 68.3246 84.4703 64.3135 86.0491 61.1024" fill="#2F2E41"/>
<path d="M91.7588 62.4743C85.3931 60.3789 78.2521 63.7428 73.9424 68.8751C69.6328 74.0074 67.5422 80.5919 65.5507 86.9909C64.41 90.6563 63.2693 94.3217 62.1285 97.987C61.0554 101.435 59.9823 104.883 58.9092 108.331C57.647 112.387 56.3745 116.696 57.4104 120.815C58.1593 123.793 60.0863 126.497 60.1277 129.568C60.1711 132.775 58.1624 135.591 56.4021 138.272C54.6419 140.954 52.9895 144.14 53.8282 147.236C55.1038 151.945 61.6513 154.534 61.2924 159.4C61.1726 161.024 60.2336 162.526 60.2506 164.154C60.2723 166.226 61.8942 168.016 63.7945 168.841C65.6947 169.666 67.8323 169.711 69.9037 169.675C76.2575 169.563 82.5998 168.809 88.8025 167.426C91.1889 166.895 93.6156 166.242 95.6021 164.817C97.5885 163.392 99.0704 161.03 98.8119 158.599C98.409 154.81 94.3356 152.661 92.28 149.453C90.2609 146.302 90.3078 142.31 89.4371 138.671C88.2405 133.669 85.2854 129.302 83.067 124.662C74.7269 107.218 77.6464 84.9826 90.2072 70.2827C91.3178 68.9829 92.5312 67.6754 92.9945 66.0298C93.4578 64.3842 92.8605 62.2876 91.2508 61.7119" fill="#2F2E41"/>
<path d="M173.271 29.7288C154.101 10.5583 128.611 0 101.5 0C74.3888 0 48.8994 10.5583 29.7288 29.7288C10.5583 48.8993 0 74.3888 0 101.5C0 126.245 8.79539 149.64 24.9133 168.112C26.4511 169.879 28.0575 171.6 29.7288 173.271C30.1218 173.664 30.5187 174.057 30.9194 174.439C31.9878 175.473 33.0753 176.484 34.1819 177.465C34.8534 178.064 35.5326 178.651 36.2195 179.228C36.7575 179.682 37.2955 180.128 37.8412 180.567C37.8526 180.578 37.8603 180.586 37.8717 180.594C55.8479 195.113 78.0673 203 101.5 203C126.917 203 150.907 193.72 169.604 176.763C170.852 175.633 172.073 174.469 173.271 173.271C173.649 172.893 174.027 172.512 174.397 172.126C175.427 171.066 176.427 169.986 177.404 168.891C193.953 150.3 203 126.596 203 101.5C203 74.3888 192.442 48.8993 173.271 29.7288ZM177.156 167.941C176.202 169.024 175.225 170.093 174.225 171.134C172.668 172.756 171.062 174.328 169.402 175.843C168.772 176.423 168.135 176.988 167.49 177.549C160.977 183.215 153.727 188.054 145.908 191.908C143.165 193.262 140.352 194.495 137.475 195.597C126.299 199.886 114.168 202.237 101.5 202.237C89.2742 202.237 77.5521 200.047 66.7038 196.04C62.2508 194.399 57.9466 192.449 53.8141 190.217C53.2074 189.889 52.6045 189.557 52.0054 189.217C48.8536 187.432 45.8047 185.482 42.878 183.375C40.6916 181.807 38.57 180.155 36.5209 178.415C35.8036 177.808 35.0938 177.194 34.3955 176.564C33.2584 175.553 32.1442 174.511 31.0567 173.443C28.9962 171.424 27.0272 169.322 25.1461 167.135C9.95541 149.491 0.763158 126.551 0.763158 101.5C0.763158 45.9536 45.9536 0.763158 101.5 0.763158C157.046 0.763158 202.237 45.9536 202.237 101.5C202.237 126.936 192.762 150.197 177.156 167.941Z" fill="#3F3D56"/>
</g>
<defs>
<clipPath id="clip0_1_5145">
<rect width="203" height="203" fill="white"/>
</clipPath>
</defs>
</svg>
