<svg width="203" height="203" viewBox="0 0 203 203" fill="none" xmlns="http://www.w3.org/2000/svg">
<circle cx="101.5" cy="101.5" r="101.5" fill="#D9D9D9"/>
<g clip-path="url(#clip0_210_690)">
<path d="M103.316 132.514C121.513 132.514 136.265 117.762 136.265 99.5652C136.265 81.368 121.513 66.6162 103.316 66.6162C85.1187 66.6162 70.367 81.368 70.367 99.5652C70.367 117.762 85.1187 132.514 103.316 132.514Z" fill="#FFB8B8"/>
<path d="M76.0441 139.892L82.9125 122.339L118.399 116.997L122.212 155.852L86.3437 156.615L76.0441 139.892Z" fill="#FFB8B8"/>
<path d="M136.584 105.644C136.156 107.358 135.292 111.437 133.942 111.457C132.839 111.473 131.784 93.7765 132.885 90.8494C134.151 87.4866 130.825 83.2328 128.32 81.0492C123.816 77.123 113.817 85.5536 103.651 81.7345C103.381 81.6334 103.435 81.6448 100.224 80.3639C90.3453 76.4223 89.826 76.3086 89.26 76.2523C84.471 75.7785 78.6265 79.6974 76.2399 84.4755C73.759 89.4423 75.8319 93.7025 73.4989 105.719C73.227 107.119 72.8001 109.116 72.1284 109.145C70.9004 109.199 69.7013 102.64 69.3873 100.922C68.0716 93.7246 66.8032 86.7856 69.3873 78.9934C69.6692 78.1435 71.4064 74.9889 74.8694 68.7144C79.8583 59.6755 82.3675 55.139 83.0926 54.3239C88.293 48.4757 97.7589 43.1408 105.706 45.4154C109.723 46.5651 109.003 48.4135 113.929 50.2123C122.709 53.4178 130.339 49.4976 131.746 52.2681C132.492 53.7356 130.406 54.9456 130.376 57.7502C130.324 62.5624 136.41 63.953 139.97 68.7144C141.883 71.2741 145.158 71.3016 136.584 105.644Z" fill="#2F2E41"/>
<path d="M177.404 168.891C176.076 170.383 174.698 171.844 173.271 173.272C154.101 192.442 128.611 203 101.5 203C78.0673 203 55.8479 195.113 37.8717 180.594C37.8603 180.586 37.8526 180.579 37.8413 180.567C35.4564 178.644 33.1478 176.599 30.9194 174.439C30.9613 174.103 31.0071 173.771 31.0567 173.443C31.3696 171.23 31.7169 169.12 32.106 167.177C35.2922 151.258 77.2164 134.545 78.3076 134.11C78.3229 134.106 78.3305 134.102 78.3305 134.102C78.3305 134.102 83.7261 153.99 106.846 153.735C122.594 153.563 119.541 134.102 119.541 134.102C119.541 134.102 119.732 134.14 120.091 134.217C124.639 135.182 156.218 142.119 168.677 151.586C172.474 154.471 175.198 160.615 177.156 167.941C177.24 168.254 177.32 168.574 177.404 168.891Z" fill="#089885"/>
<path d="M173.271 29.7289C154.101 10.5586 128.611 0 101.5 0C74.3888 0 48.8994 10.5586 29.7288 29.7289C10.5584 48.8995 0 74.3889 0 101.5C0 126.246 8.79541 149.64 24.9133 168.112C26.4511 169.879 28.0575 171.6 29.7288 173.271C30.1218 173.664 30.5187 174.057 30.9194 174.439C33.1478 176.599 35.4564 178.644 37.8413 180.567C37.8526 180.579 37.8603 180.586 37.8717 180.594C55.8479 195.113 78.0673 203 101.5 203C128.611 203 154.101 192.442 173.271 173.271C174.698 171.844 176.076 170.383 177.404 168.891C193.953 150.3 203 126.597 203 101.5C203 74.3889 192.442 48.8995 173.271 29.7289ZM177.156 167.941C174.153 171.356 170.924 174.569 167.49 177.549C160.977 183.215 153.727 188.054 145.908 191.908C143.165 193.262 140.352 194.495 137.475 195.598C126.299 199.887 114.168 202.237 101.5 202.237C89.2742 202.237 77.5521 200.047 66.7038 196.04C62.2507 194.399 57.9466 192.45 53.8141 190.217C53.2073 189.889 52.6045 189.557 52.0054 189.218C48.8536 187.432 45.8048 185.482 42.8781 183.376C38.6845 180.369 34.7313 177.045 31.0567 173.443C28.9962 171.424 27.0273 169.322 25.1461 167.136C9.95543 149.491 0.763158 126.551 0.763158 101.5C0.763158 45.9538 45.9535 0.763158 101.5 0.763158C157.046 0.763158 202.237 45.9538 202.237 101.5C202.237 126.936 192.762 150.197 177.156 167.941Z" fill="#3F3D56"/>
</g>
<defs>
<clipPath id="clip0_210_690">
<rect width="203" height="203" fill="white"/>
</clipPath>
</defs>
</svg>
