<svg width="94" height="90" viewBox="0 0 94 90" fill="none" xmlns="http://www.w3.org/2000/svg">
<path d="M52.0711 59.888H42.9271C42.5791 59.888 42.4231 59.6 42.4231 59.3C42.4231 58.988 42.5791 58.7 42.9271 58.7H46.7431V58.064C45.1111 57.956 44.1511 57.488 44.1511 56.504C44.1511 55.376 45.4231 54.92 47.4991 54.92C49.5751 54.92 50.8471 55.376 50.8471 56.504C50.8471 57.488 49.8751 57.956 48.2551 58.064V58.7H52.0711C52.4191 58.7 52.5751 58.988 52.5751 59.3C52.5751 59.6 52.4191 59.888 52.0711 59.888ZM44.7871 63.776C44.0191 63.776 43.7671 63.536 43.7671 62.78V61.4C43.7671 60.644 44.0191 60.404 44.7871 60.404H50.2111C50.9791 60.404 51.2311 60.644 51.2311 61.4V62.78C51.2311 63.536 50.9791 63.776 50.2111 63.776H44.7871ZM43.7551 53.372H46.7191V52.916C46.7191 52.484 47.0791 52.28 47.4991 52.28C47.9071 52.28 48.2791 52.484 48.2791 52.916V53.372H51.2431C51.5911 53.372 51.7471 53.66 51.7471 53.972C51.7471 54.272 51.5911 54.56 51.2431 54.56H43.7551C43.4071 54.56 43.2511 54.272 43.2511 53.972C43.2511 53.66 43.4071 53.372 43.7551 53.372ZM45.2431 61.856V62.324C45.2431 62.528 45.3151 62.6 45.5191 62.6H49.4791C49.6831 62.6 49.7551 62.528 49.7551 62.324V61.856C49.7551 61.652 49.6831 61.58 49.4791 61.58H45.5191C45.3151 61.58 45.2431 61.652 45.2431 61.856ZM49.3711 56.504C49.3711 56.18 48.8791 56.012 47.4991 56.012C46.1191 56.012 45.6271 56.18 45.6271 56.504C45.6271 56.828 46.1191 56.996 47.4991 56.996C48.8791 56.996 49.3711 56.828 49.3711 56.504Z" fill="#18191F"/>
<g clip-path="url(#clip0_237_555)">
<circle cx="47" cy="28" r="11" fill="#E2E3E4" stroke="#18191F" stroke-width="2"/>
</g>
<defs>
<clipPath id="clip0_237_555">
<rect width="24" height="24" fill="white" transform="translate(35 16)"/>
</clipPath>
</defs>
</svg>
