<svg width="43" height="12" viewBox="0 0 43 12" fill="none" xmlns="http://www.w3.org/2000/svg">
<path d="M0.90025 4.864C0.90025 2.5 1.87225 1.216 3.79225 1.216C5.71225 1.216 6.68425 2.5 6.68425 4.864C6.68425 7.228 5.71225 8.512 3.79225 8.512C1.87225 8.512 0.90025 7.228 0.90025 4.864ZM5.20825 4.864C5.20825 3.352 4.83625 2.548 3.79225 2.548C2.74825 2.548 2.37625 3.352 2.37625 4.864C2.37625 6.376 2.74825 7.18 3.79225 7.18C4.83625 7.18 5.20825 6.376 5.20825 4.864ZM9.73225 1.252V10.444C9.73225 10.888 9.36025 11.092 8.95225 11.092C8.55625 11.092 8.18425 10.888 8.18425 10.444V1.252C8.18425 0.808 8.55625 0.603999 8.95225 0.603999C9.36025 0.603999 9.73225 0.808 9.73225 1.252ZM21.0861 7.216H11.9901C11.6301 7.216 11.4621 6.928 11.4621 6.58C11.4621 6.244 11.6301 5.956 11.9901 5.956H14.1861V4.708C13.2861 4.384 12.7821 3.808 12.7821 2.932C12.7821 1.468 14.1981 0.831999 16.5381 0.831999C18.8781 0.831999 20.2941 1.468 20.2941 2.932C20.2941 3.808 19.7901 4.384 18.8901 4.708V5.956H21.0861C21.4461 5.956 21.6141 6.244 21.6141 6.58C21.6141 6.928 21.4461 7.216 21.0861 7.216ZM12.7581 9.892C12.7581 8.428 14.1861 7.792 16.5381 7.792C18.8901 7.792 20.3181 8.428 20.3181 9.892C20.3181 11.356 18.8901 11.992 16.5381 11.992C14.1861 11.992 12.7581 11.356 12.7581 9.892ZM18.7941 9.892C18.7941 9.328 18.1461 9.004 16.5381 9.004C14.9301 9.004 14.2821 9.328 14.2821 9.892C14.2821 10.456 14.9301 10.78 16.5381 10.78C18.1461 10.78 18.7941 10.456 18.7941 9.892ZM16.5381 2.056C14.9421 2.056 14.3061 2.368 14.3061 2.932C14.3061 3.496 14.9421 3.808 16.5381 3.808C18.1341 3.808 18.7701 3.496 18.7701 2.932C18.7701 2.368 18.1341 2.056 16.5381 2.056ZM16.5381 5.032C16.2261 5.032 15.9261 5.02 15.6501 4.996V5.956H17.4261V4.996C17.1501 5.02 16.8501 5.032 16.5381 5.032ZM23.692 8.224C22.924 8.224 22.672 7.984 22.672 7.228V2.032C22.672 1.588 23.044 1.384 23.44 1.384C23.848 1.384 24.22 1.588 24.22 2.032V6.64C24.22 6.844 24.292 6.916 24.496 6.916C25.18 6.916 26.188 6.868 26.956 6.76C27.316 6.712 27.532 6.964 27.568 7.324C27.604 7.684 27.484 7.996 27.136 8.056C26.62 8.14 25.456 8.224 23.692 8.224ZM29.476 1.324V4.216H30.508V1.204C30.508 0.796 30.856 0.603999 31.216 0.603999C31.576 0.603999 31.924 0.796 31.924 1.204V10.492C31.924 10.9 31.576 11.092 31.216 11.092C30.856 11.092 30.508 10.9 30.508 10.492V5.512H29.476V9.988C29.476 10.396 29.128 10.588 28.768 10.588C28.42 10.588 28.072 10.396 28.072 9.988V1.324C28.072 0.916 28.42 0.723999 28.768 0.723999C29.128 0.723999 29.476 0.916 29.476 1.324ZM33.5939 3.784C33.5939 2.2 34.5419 1.048 36.4019 1.048C38.2619 1.048 39.2099 2.2 39.2099 3.784C39.2099 5.368 38.2619 6.52 36.4019 6.52C34.5419 6.52 33.5939 5.368 33.5939 3.784ZM37.7459 3.784C37.7459 2.968 37.3859 2.32 36.4019 2.32C35.4179 2.32 35.0579 2.968 35.0579 3.784C35.0579 4.6 35.4179 5.248 36.4019 5.248C37.3859 5.248 37.7459 4.6 37.7459 3.784ZM42.5699 1.252V6.52C42.5699 6.964 42.1979 7.168 41.8139 7.168C41.4299 7.168 41.0579 6.964 41.0579 6.52V5.548H40.0019C39.6299 5.548 39.4739 5.248 39.4739 4.888C39.4739 4.54 39.6299 4.24 40.0019 4.24H41.0579V3.388H40.0019C39.6299 3.388 39.4739 3.088 39.4739 2.728C39.4739 2.38 39.6299 2.08 40.0019 2.08H41.0579V1.252C41.0579 0.808 41.4299 0.603999 41.8139 0.603999C42.1979 0.603999 42.5699 0.808 42.5699 1.252ZM41.0339 11.236V9.184C41.0339 8.98 40.9619 8.908 40.7579 8.908H35.6459C35.2739 8.908 35.1059 8.608 35.1059 8.26C35.1059 7.912 35.2739 7.612 35.6459 7.612H41.5499C42.3179 7.612 42.5699 7.852 42.5699 8.608V11.236C42.5699 11.68 42.1979 11.884 41.8019 11.884C41.4059 11.884 41.0339 11.68 41.0339 11.236Z" fill="#474A57"/>
</svg>
