<svg width="57" height="12" viewBox="0 0 57 12" fill="none" xmlns="http://www.w3.org/2000/svg">
<path d="M2.00731 8.296C1.23931 8.296 0.987312 8.056 0.987312 7.3V1.96C0.987312 1.516 1.35931 1.312 1.75531 1.312C2.16331 1.312 2.53531 1.516 2.53531 1.96V6.712C2.53531 6.916 2.60731 6.988 2.81131 6.988C4.13131 6.988 5.36731 6.916 6.53131 6.76C6.90331 6.712 7.11931 6.976 7.15531 7.324C7.19131 7.684 7.07131 8.008 6.72331 8.056C5.73931 8.188 4.35931 8.296 2.00731 8.296ZM9.25531 4.144H10.3833C10.7673 4.144 10.9353 4.444 10.9353 4.804C10.9353 5.176 10.7673 5.476 10.3833 5.476H9.25531V10.444C9.25531 10.888 8.88331 11.092 8.48731 11.092C8.09131 11.092 7.71931 10.888 7.71931 10.444V1.252C7.71931 0.808 8.09131 0.603999 8.48731 0.603999C8.88331 0.603999 9.25531 0.808 9.25531 1.252V4.144ZM15.2212 6.604C13.2532 6.604 12.2332 5.476 12.2332 3.916C12.2332 2.356 13.2532 1.228 15.2212 1.228C17.1892 1.228 18.2092 2.356 18.2092 3.916C18.2092 5.476 17.1892 6.604 15.2212 6.604ZM15.2212 2.5C14.1772 2.5 13.6852 3.088 13.6852 3.916C13.6852 4.744 14.1772 5.332 15.2212 5.332C16.2652 5.332 16.7572 4.744 16.7572 3.916C16.7572 3.088 16.2652 2.5 15.2212 2.5ZM18.4492 9.016C16.8532 9.16 14.4772 9.244 12.1732 9.244C11.8012 9.244 11.6332 8.944 11.6332 8.584C11.6332 8.236 11.8012 7.936 12.1732 7.936C14.2132 7.936 16.3252 7.912 18.3412 7.732C18.7132 7.696 18.8932 7.96 18.9172 8.308C18.9412 8.656 18.8092 8.98 18.4492 9.016ZM19.3852 10.444V1.252C19.3852 0.808 19.7572 0.603999 20.1532 0.603999C20.5372 0.603999 20.9092 0.808 20.9092 1.252V10.444C20.9092 10.888 20.5372 11.092 20.1532 11.092C19.7572 11.092 19.3852 10.888 19.3852 10.444ZM25.4471 2.152C25.4471 1.828 25.6151 1.528 25.9871 1.528H30.2591C30.6311 1.528 30.7991 1.828 30.7991 2.152C30.7991 2.476 30.6311 2.776 30.2591 2.776H29.9591V6.988C30.0911 6.976 30.2231 6.964 30.3551 6.94C30.7151 6.892 30.9311 7.144 30.9671 7.468C31.0031 7.804 30.8591 8.14 30.5351 8.176C29.0951 8.344 27.9071 8.344 25.9151 8.344C25.5431 8.344 25.3751 8.044 25.3751 7.72C25.3751 7.396 25.5431 7.096 25.9151 7.096H26.3471V2.776H25.9871C25.6151 2.776 25.4471 2.476 25.4471 2.152ZM27.7031 2.776V7.096C28.0031 7.096 28.3031 7.096 28.6031 7.072V2.776H27.7031ZM33.5591 10.492V1.204C33.5591 0.796 33.9071 0.603999 34.2551 0.603999C34.6151 0.603999 34.9631 0.796 34.9631 1.204V10.492C34.9631 10.9 34.6151 11.092 34.2551 11.092C33.9071 11.092 33.5591 10.9 33.5591 10.492ZM31.4831 9.988V5.5H30.9311C30.5591 5.5 30.3911 5.2 30.3911 4.852C30.3911 4.492 30.5591 4.192 30.9311 4.192H31.4831V1.324C31.4831 0.916 31.8311 0.723999 32.1791 0.723999C32.5271 0.723999 32.8751 0.916 32.8751 1.324V9.988C32.8751 10.396 32.5271 10.588 32.1791 10.588C31.8311 10.588 31.4831 10.396 31.4831 9.988ZM36.7049 4.864C36.7049 2.5 37.6769 1.216 39.5969 1.216C41.5169 1.216 42.4889 2.5 42.4889 4.864C42.4889 7.228 41.5169 8.512 39.5969 8.512C37.6769 8.512 36.7049 7.228 36.7049 4.864ZM41.0129 4.864C41.0129 3.352 40.6409 2.548 39.5969 2.548C38.5529 2.548 38.1809 3.352 38.1809 4.864C38.1809 6.376 38.5529 7.18 39.5969 7.18C40.6409 7.18 41.0129 6.376 41.0129 4.864ZM45.5369 1.252V10.444C45.5369 10.888 45.1649 11.092 44.7569 11.092C44.3609 11.092 43.9889 10.888 43.9889 10.444V1.252C43.9889 0.808 44.3609 0.603999 44.7569 0.603999C45.1649 0.603999 45.5369 0.808 45.5369 1.252ZM53.3028 2.728H51.6108V3.64C51.6108 4.672 51.8388 5.236 52.4988 5.92C52.9548 6.388 53.4108 6.82 53.7708 7.132C54.0708 7.396 53.9748 7.828 53.7348 8.08C53.4948 8.32 53.0988 8.428 52.8108 8.176C52.4988 7.9 52.1028 7.516 51.6708 7.084C51.0468 6.46 50.8908 6.184 50.8428 5.956H50.8308C50.7708 6.232 50.6148 6.496 49.9908 7.12C49.5588 7.552 49.1268 7.972 48.6708 8.368C48.3588 8.632 47.9388 8.464 47.7228 8.224C47.4828 7.948 47.4468 7.528 47.7468 7.264C48.2508 6.82 48.7068 6.388 49.1628 5.92C49.8228 5.236 50.0508 4.672 50.0508 3.64V2.728H48.2628C47.8908 2.728 47.7228 2.428 47.7228 2.08C47.7228 1.72 47.8908 1.42 48.2628 1.42H53.3028C53.6748 1.42 53.8428 1.72 53.8428 2.08C53.8428 2.428 53.6748 2.728 53.3028 2.728ZM56.4588 1.252V10.444C56.4588 10.888 56.0868 11.092 55.6788 11.092C55.2828 11.092 54.9108 10.888 54.9108 10.444V1.252C54.9108 0.808 55.2828 0.603999 55.6788 0.603999C56.0868 0.603999 56.4588 0.808 56.4588 1.252Z" fill="#474A57"/>
</svg>
