<svg width="11" height="12" viewBox="0 0 11 12" fill="none" xmlns="http://www.w3.org/2000/svg">
<path d="M10.0711 7.888H0.927063C0.579063 7.888 0.423063 7.6 0.423063 7.3C0.423063 6.988 0.579063 6.7 0.927063 6.7H4.74306V6.064C3.11106 5.956 2.15106 5.488 2.15106 4.504C2.15106 3.376 3.42306 2.92 5.49906 2.92C7.57506 2.92 8.84706 3.376 8.84706 4.504C8.84706 5.488 7.87506 5.956 6.25506 6.064V6.7H10.0711C10.4191 6.7 10.5751 6.988 10.5751 7.3C10.5751 7.6 10.4191 7.888 10.0711 7.888ZM2.78706 11.776C2.01906 11.776 1.76706 11.536 1.76706 10.78V9.4C1.76706 8.644 2.01906 8.404 2.78706 8.404H8.21106C8.97906 8.404 9.23106 8.644 9.23106 9.4V10.78C9.23106 11.536 8.97906 11.776 8.21106 11.776H2.78706ZM1.75506 1.372H4.71906V0.916C4.71906 0.483999 5.07906 0.279999 5.49906 0.279999C5.90706 0.279999 6.27906 0.483999 6.27906 0.916V1.372H9.24306C9.59106 1.372 9.74706 1.66 9.74706 1.972C9.74706 2.272 9.59106 2.56 9.24306 2.56H1.75506C1.40706 2.56 1.25106 2.272 1.25106 1.972C1.25106 1.66 1.40706 1.372 1.75506 1.372ZM3.24306 9.856V10.324C3.24306 10.528 3.31506 10.6 3.51906 10.6H7.47906C7.68306 10.6 7.75506 10.528 7.75506 10.324V9.856C7.75506 9.652 7.68306 9.58 7.47906 9.58H3.51906C3.31506 9.58 3.24306 9.652 3.24306 9.856ZM7.37106 4.504C7.37106 4.18 6.87906 4.012 5.49906 4.012C4.11906 4.012 3.62706 4.18 3.62706 4.504C3.62706 4.828 4.11906 4.996 5.49906 4.996C6.87906 4.996 7.37106 4.828 7.37106 4.504Z" fill="#18191F"/>
</svg>
