<svg width="67" height="66" viewBox="0 0 67 66" fill="none" xmlns="http://www.w3.org/2000/svg">
<path d="M44.6667 62.5625H25.1251C15.5217 62.5625 9.073 56.21 9.073 46.75V19.25C9.073 9.79 15.5217 3.4375 25.1251 3.4375H44.6667C54.2701 3.4375 60.7188 9.79 60.7188 19.25V46.75C60.7188 56.21 54.2701 62.5625 44.6667 62.5625ZM25.1251 7.5625C17.9226 7.5625 13.2605 12.155 13.2605 19.25V46.75C13.2605 53.845 17.9226 58.4375 25.1251 58.4375H44.6667C51.8692 58.4375 56.5313 53.845 56.5313 46.75V19.25C56.5313 12.155 51.8692 7.5625 44.6667 7.5625H25.1251Z" fill="#292D32"/>
<path d="M58.6251 43.3125H11.1667C10.0222 43.3125 9.073 42.3775 9.073 41.25C9.073 40.1225 10.0222 39.1875 11.1667 39.1875H58.6251C59.7697 39.1875 60.7188 40.1225 60.7188 41.25C60.7188 42.3775 59.7697 43.3125 58.6251 43.3125Z" fill="#292D32"/>
<path d="M22.3334 35.0625H19.5417C18.3972 35.0625 17.448 34.1275 17.448 33C17.448 31.8725 18.3972 30.9375 19.5417 30.9375H22.3334C23.478 30.9375 24.4272 31.8725 24.4272 33C24.4272 34.1275 23.478 35.0625 22.3334 35.0625Z" fill="#292D32"/>
<path d="M22.3334 28.1875H19.5417C18.3972 28.1875 17.448 27.2525 17.448 26.125C17.448 24.9975 18.3972 24.0625 19.5417 24.0625H22.3334C23.478 24.0625 24.4272 24.9975 24.4272 26.125C24.4272 27.2525 23.478 28.1875 22.3334 28.1875Z" fill="#292D32"/>
<path d="M22.3334 21.3125H19.5417C18.3972 21.3125 17.448 20.3775 17.448 19.25C17.448 18.1225 18.3972 17.1875 19.5417 17.1875H22.3334C23.478 17.1875 24.4272 18.1225 24.4272 19.25C24.4272 20.3775 23.478 21.3125 22.3334 21.3125Z" fill="#292D32"/>
<path d="M47.4584 53.625C46.7326 53.625 46.0068 53.3225 45.4763 52.8275C44.9738 52.305 44.6667 51.59 44.6667 50.875C44.6667 50.1325 44.9738 49.445 45.4763 48.9225C46.258 48.1525 47.4863 47.905 48.5192 48.345C48.8542 48.4825 49.1613 48.675 49.4405 48.9225C49.943 49.445 50.2501 50.16 50.2501 50.875C50.2501 51.59 49.943 52.305 49.4405 52.8275C49.1613 53.075 48.8822 53.2676 48.5192 53.4051C48.1842 53.5426 47.8213 53.625 47.4584 53.625Z" fill="#292D32"/>
</svg>
