<svg width="68" height="67" viewBox="0 0 68 67" fill="none" xmlns="http://www.w3.org/2000/svg">
<path d="M49.7533 50.1663H18.2467C6.97001 50.1663 3.54167 46.7883 3.54167 35.6775V17.9783C3.54167 6.86751 6.97001 3.48959 18.2467 3.48959H49.725C61.0017 3.48959 64.43 6.86751 64.43 17.9783V35.6496C64.4583 46.7883 61.03 50.1663 49.7533 50.1663ZM18.2467 7.67709C9.35001 7.67709 7.79167 9.21251 7.79167 17.9783V35.6496C7.79167 44.4154 9.35001 45.9508 18.2467 45.9508H49.725C58.6217 45.9508 60.18 44.4154 60.18 35.6496V17.9783C60.18 9.21251 58.6217 7.67709 49.725 7.67709H18.2467Z" fill="#292D32"/>
<path d="M34 63.5104C32.8383 63.5104 31.875 62.5613 31.875 61.4167V48.0725C31.875 46.9279 32.8383 45.9788 34 45.9788C35.1617 45.9788 36.125 46.9279 36.125 48.0725V61.4167C36.125 62.5613 35.1617 63.5104 34 63.5104Z" fill="#292D32"/>
<path d="M62.3333 38.3854H5.66667C4.50501 38.3854 3.54167 37.4362 3.54167 36.2917C3.54167 35.1471 4.50501 34.1979 5.66667 34.1979H62.3333C63.495 34.1979 64.4583 35.1471 64.4583 36.2917C64.4583 37.4362 63.495 38.3854 62.3333 38.3854Z" fill="#292D32"/>
<path d="M46.75 63.5104H21.25C20.0883 63.5104 19.125 62.5612 19.125 61.4167C19.125 60.2721 20.0883 59.3229 21.25 59.3229H46.75C47.9117 59.3229 48.875 60.2721 48.875 61.4167C48.875 62.5612 47.9117 63.5104 46.75 63.5104Z" fill="#292D32"/>
</svg>
