<svg width="67" height="67" viewBox="0 0 67 67" fill="none" xmlns="http://www.w3.org/2000/svg">
<path d="M13.9583 41.1771C9.715 41.1771 6.28125 37.7434 6.28125 33.5C6.28125 29.2567 9.715 25.8229 13.9583 25.8229C18.2017 25.8229 21.6354 29.2567 21.6354 33.5C21.6354 37.7434 18.2017 41.1771 13.9583 41.1771ZM13.9583 30.0104C12.0321 30.0104 10.4688 31.5738 10.4688 33.5C10.4688 35.4263 12.0321 36.9896 13.9583 36.9896C15.8846 36.9896 17.4479 35.4263 17.4479 33.5C17.4479 31.5738 15.8846 30.0104 13.9583 30.0104Z" fill="#292D32"/>
<path d="M53.0416 41.1771C48.7983 41.1771 45.3645 37.7434 45.3645 33.5C45.3645 29.2567 48.7983 25.8229 53.0416 25.8229C57.2849 25.8229 60.7187 29.2567 60.7187 33.5C60.7187 37.7434 57.2849 41.1771 53.0416 41.1771ZM53.0416 30.0104C51.1153 30.0104 49.552 31.5738 49.552 33.5C49.552 35.4263 51.1153 36.9896 53.0416 36.9896C54.9678 36.9896 56.5312 35.4263 56.5312 33.5C56.5312 31.5738 54.9678 30.0104 53.0416 30.0104Z" fill="#292D32"/>
<path d="M33.5001 41.1771C29.2567 41.1771 25.823 37.7434 25.823 33.5C25.823 29.2567 29.2567 25.8229 33.5001 25.8229C37.7434 25.8229 41.1772 29.2567 41.1772 33.5C41.1772 37.7434 37.7434 41.1771 33.5001 41.1771ZM33.5001 30.0104C31.5738 30.0104 30.0105 31.5738 30.0105 33.5C30.0105 35.4263 31.5738 36.9896 33.5001 36.9896C35.4263 36.9896 36.9897 35.4263 36.9897 33.5C36.9897 31.5738 35.4263 30.0104 33.5001 30.0104Z" fill="#292D32"/>
</svg>
