<svg width="70" height="17" viewBox="0 0 70 17" fill="none" xmlns="http://www.w3.org/2000/svg">
<path d="M16.58 3.64C16.58 3.25 16.28 2.95 15.86 2.95H1.76V11.89C1.76 14.92 4.79 15.94 9.17 15.94C13.52 15.94 16.58 14.92 16.58 11.89V3.64ZM0.5 2.56C0.5 2.2 0.74 1.9 1.13 1.9C1.37 1.9 1.58 1.99 1.73 2.05C1.79 2.08 1.94 2.11 2.21 2.11H15.95C17.21 2.11 17.75 2.77 17.75 3.85V11.71C17.75 15.52 14.36 16.78 9.17 16.78C3.95 16.78 0.59 15.52 0.59 11.71V3.31C0.59 2.98 0.5 2.83 0.5 2.56ZM34.88 16.72C30.38 16.72 26.45 13.72 26.45 8.68C26.45 3.67 30.38 0.67 34.88 0.67C39.35 0.67 43.31 3.67 43.31 8.68C43.31 13.72 39.35 16.72 34.88 16.72ZM27.62 8.68C27.62 13.45 31.22 15.88 34.88 15.88C38.51 15.88 42.14 13.45 42.14 8.68C42.14 3.94 38.51 1.51 34.88 1.51C31.22 1.51 27.62 3.94 27.62 8.68ZM52.0039 2.35C51.9739 1.99 52.3039 1.69 52.6939 1.69C53.0539 1.69 53.3839 1.99 53.3539 2.35C53.3239 2.62 53.2639 2.8 53.2639 3.07V9.13C53.6539 8.38 54.5239 7.87 55.5439 7.45C58.7539 6.1 64.7539 6.55 68.0839 6.73V3.07C68.0839 2.8 68.0239 2.62 67.9939 2.35C67.9639 1.99 68.2939 1.69 68.6839 1.69C69.0439 1.69 69.3739 1.99 69.3439 2.35C69.3139 2.62 69.2539 2.8 69.2539 3.07V12.01C69.2539 15.31 66.1639 16.93 60.6739 16.93C55.1539 16.93 52.0939 15.31 52.0939 12.01V3.07C52.0939 2.8 52.0339 2.62 52.0039 2.35ZM53.2639 12.19C53.3239 15.01 56.6239 16.09 60.6739 16.09C65.3239 16.09 68.0839 14.71 68.0839 12.19V7.57C64.0939 7.36 57.0439 6.76 54.3139 9.13C53.6239 9.73 53.2639 10.57 53.2639 11.32V12.19Z" fill="#089885"/>
<path d="M1.76 2.95V1.95H0.76V2.95H1.76ZM1.73 2.05L2.17721 1.15557L2.14001 1.13697L2.1014 1.12153L1.73 2.05ZM17.58 3.64C17.58 2.66978 16.8039 1.95 15.86 1.95V3.95C15.8263 3.95 15.7516 3.9348 15.681 3.86633C15.6102 3.79758 15.58 3.70933 15.58 3.64H17.58ZM15.86 1.95H1.76V3.95H15.86V1.95ZM0.76 2.95V11.89H2.76V2.95H0.76ZM0.76 11.89C0.76 12.8225 0.996096 13.6547 1.47328 14.3609C1.94603 15.0606 2.61414 15.5761 3.38566 15.9508C4.89848 16.6855 6.93627 16.94 9.17 16.94V14.94C7.02374 14.94 5.35652 14.6845 4.25934 14.1517C3.72586 13.8926 3.36272 13.585 3.13047 13.2412C2.90265 12.9041 2.76 12.4725 2.76 11.89H0.76ZM9.17 16.94C11.3898 16.94 13.4265 16.6852 14.9421 15.9513C15.7146 15.5772 16.3853 15.0625 16.8608 14.3635C17.341 13.6575 17.58 12.8246 17.58 11.89H15.58C15.58 12.4704 15.4365 12.9013 15.207 13.2387C14.9728 13.5831 14.6067 13.8915 14.0704 14.1512C12.9685 14.6848 11.3002 14.94 9.17 14.94V16.94ZM17.58 11.89V3.64H15.58V11.89H17.58ZM1.5 2.56C1.5 2.59915 1.48622 2.68212 1.40974 2.76652C1.32327 2.86193 1.20876 2.9 1.13 2.9V0.899999C0.0973663 0.899999 -0.5 1.74262 -0.5 2.56H1.5ZM1.13 2.9C1.12587 2.9 1.13934 2.89935 1.17966 2.9113C1.2264 2.92515 1.26713 2.94189 1.3586 2.97847L2.1014 1.12153C1.98766 1.07603 1.59612 0.899999 1.13 0.899999V2.9ZM1.28279 2.94443C1.45613 3.0311 1.63394 3.06464 1.74983 3.0812C1.88667 3.10075 2.0406 3.11 2.21 3.11V1.11C2.16079 1.11 2.12154 1.10863 2.09136 1.10676C2.06092 1.10487 2.04186 1.10261 2.03267 1.1013C2.02257 1.09986 2.02861 1.10016 2.04683 1.10496C2.05632 1.10745 2.07189 1.1119 2.0921 1.11909C2.11167 1.12605 2.14132 1.13763 2.17721 1.15557L1.28279 2.94443ZM2.21 3.11H15.95V1.11H2.21V3.11ZM15.95 3.11C16.4136 3.11 16.5638 3.2293 16.6065 3.2731C16.6539 3.32168 16.75 3.46389 16.75 3.85H18.75C18.75 3.15611 18.5761 2.42832 18.0385 1.8769C17.4962 1.3207 16.7464 1.11 15.95 1.11V3.11ZM16.75 3.85V11.71H18.75V3.85H16.75ZM16.75 11.71C16.75 12.51 16.5737 13.1164 16.2855 13.5887C15.9968 14.0621 15.5582 14.4622 14.9388 14.7897C13.664 15.4639 11.721 15.78 9.17 15.78V17.78C11.809 17.78 14.156 17.4661 15.8737 16.5578C16.7505 16.0941 17.4839 15.4648 17.9929 14.6303C18.5025 13.7949 18.75 12.815 18.75 11.71H16.75ZM9.17 15.78C6.60307 15.78 4.66106 15.4636 3.3909 14.7902C2.77408 14.4632 2.33841 14.0639 2.05161 13.591C1.76516 13.1186 1.59 12.5116 1.59 11.71H-0.41C-0.41 12.8134 -0.165155 13.7926 0.341513 14.6281C0.847842 15.463 1.57842 16.093 2.4541 16.5573C4.16894 17.4664 6.51693 17.78 9.17 17.78V15.78ZM1.59 11.71V3.31H-0.41V11.71H1.59ZM1.59 3.31C1.59 3.04412 1.55157 2.84635 1.52558 2.71638C1.50041 2.59055 1.5 2.58059 1.5 2.56H-0.5C-0.5 2.80941 -0.455414 3.00945 -0.43558 3.10861C-0.416574 3.20365 -0.41 3.24588 -0.41 3.31H1.59ZM34.88 15.72C30.8231 15.72 27.45 13.0645 27.45 8.68H25.45C25.45 14.3755 29.9369 17.72 34.88 17.72V15.72ZM27.45 8.68C27.45 4.32789 30.8204 1.67 34.88 1.67V-0.33C29.9396 -0.33 25.45 3.01211 25.45 8.68H27.45ZM34.88 1.67C38.912 1.67 42.31 4.33002 42.31 8.68H44.31C44.31 3.00997 39.788 -0.33 34.88 -0.33V1.67ZM42.31 8.68C42.31 13.0624 38.9093 15.72 34.88 15.72V17.72C39.7907 17.72 44.31 14.3776 44.31 8.68H42.31ZM26.62 8.68C26.62 11.338 27.633 13.4149 29.214 14.817C30.7771 16.2029 32.8375 16.88 34.88 16.88V14.88C33.2625 14.88 31.6929 14.3421 30.541 13.3205C29.407 12.3151 28.62 10.792 28.62 8.68H26.62ZM34.88 16.88C36.9089 16.88 38.9683 16.2022 40.5337 14.8179C42.1175 13.4173 43.14 11.3407 43.14 8.68H41.14C41.14 10.7893 40.3475 12.3127 39.2088 13.3196C38.0518 14.3428 36.4811 14.88 34.88 14.88V16.88ZM43.14 8.68C43.14 6.03228 42.116 3.9633 40.5325 2.56736C38.9675 1.18772 36.9088 0.51 34.88 0.51V2.51C36.4812 2.51 38.0525 3.04727 39.21 4.06764C40.349 5.0717 41.14 6.58772 41.14 8.68H43.14ZM34.88 0.51C32.8376 0.51 30.7778 1.18696 29.2152 2.56827C27.6344 3.96562 26.62 6.03499 26.62 8.68H28.62C28.62 6.58501 29.4056 5.06937 30.5398 4.06673C31.6922 3.04804 33.2624 2.51 34.88 2.51V0.51ZM52.0039 2.35L51.0074 2.43305L51.0085 2.44676L51.01 2.46043L52.0039 2.35ZM53.3539 2.35L54.3478 2.46043L54.3493 2.44676L54.3505 2.43305L53.3539 2.35ZM53.2639 9.13H52.2639L54.1511 9.59135L53.2639 9.13ZM55.5439 7.45L55.9247 8.3747L55.9316 8.3718L55.5439 7.45ZM68.0839 6.73L68.0299 7.72854L69.0839 7.78551V6.73H68.0839ZM67.9939 2.35L66.9974 2.43304L66.9985 2.44676L67 2.46043L67.9939 2.35ZM69.3439 2.35L70.3378 2.46043L70.3393 2.44676L70.3405 2.43304L69.3439 2.35ZM53.2639 12.19H52.2639V12.2006L52.2641 12.2113L53.2639 12.19ZM68.0839 7.57H69.0839V6.62125L68.1365 6.57138L68.0839 7.57ZM54.3139 9.13L53.6583 8.37486L53.6577 8.37539L54.3139 9.13ZM53.0005 2.26695C53.0142 2.43148 52.9396 2.55411 52.8768 2.6132C52.8179 2.66861 52.7524 2.69 52.6939 2.69V0.69C51.8649 0.69 50.9174 1.35378 51.0074 2.43305L53.0005 2.26695ZM52.6939 2.69C52.6007 2.69 52.527 2.65433 52.474 2.6029C52.4165 2.54713 52.3438 2.42937 52.3574 2.26695L54.3505 2.43305C54.4381 1.38125 53.5239 0.69 52.6939 0.69V2.69ZM52.36 2.23957C52.349 2.33845 52.336 2.39726 52.3113 2.5456C52.2885 2.68246 52.2639 2.85616 52.2639 3.07H54.2639C54.2639 3.01384 54.2694 2.96254 54.284 2.8744C54.2968 2.79774 54.3288 2.63155 54.3478 2.46043L52.36 2.23957ZM52.2639 3.07V9.13H54.2639V3.07H52.2639ZM54.1511 9.59135C54.3611 9.18762 54.9163 8.78987 55.9247 8.37468L55.1632 6.52532C54.1315 6.95012 52.9468 7.57238 52.3767 8.66865L54.1511 9.59135ZM55.9316 8.3718C57.3456 7.77713 59.4797 7.54969 61.7835 7.51614C64.0576 7.48302 66.3464 7.63754 68.0299 7.72854L68.1379 5.73146C66.4914 5.64246 64.1152 5.48197 61.7543 5.51636C59.4231 5.55031 56.9522 5.77287 55.1562 6.5282L55.9316 8.3718ZM69.0839 6.73V3.07H67.0839V6.73H69.0839ZM69.0839 3.07C69.0839 2.85615 69.0594 2.68246 69.0366 2.5456C69.0118 2.39726 68.9988 2.33845 68.9878 2.23957L67 2.46043C67.019 2.63155 67.051 2.79774 67.0638 2.8744C67.0785 2.96254 67.0839 3.01384 67.0839 3.07H69.0839ZM68.9905 2.26696C69.0042 2.43148 68.9296 2.55411 68.8668 2.6132C68.8079 2.66861 68.7424 2.69 68.6839 2.69V0.69C67.8549 0.69 66.9074 1.35379 66.9974 2.43304L68.9905 2.26696ZM68.6839 2.69C68.5907 2.69 68.517 2.65433 68.464 2.6029C68.4065 2.54713 68.3338 2.42937 68.3474 2.26696L70.3405 2.43304C70.4281 1.38125 69.5139 0.69 68.6839 0.69V2.69ZM68.35 2.23957C68.339 2.33845 68.326 2.39726 68.3013 2.5456C68.2785 2.68246 68.2539 2.85615 68.2539 3.07H70.2539C70.2539 3.01384 70.2594 2.96254 70.274 2.8744C70.2868 2.79774 70.3188 2.63155 70.3378 2.46043L68.35 2.23957ZM68.2539 3.07V12.01H70.2539V3.07H68.2539ZM68.2539 12.01C68.2539 13.2716 67.7007 14.1812 66.5338 14.8351C65.2937 15.5301 63.3502 15.93 60.6739 15.93V17.93C63.4876 17.93 65.8341 17.5199 67.5115 16.5799C69.2621 15.5988 70.2539 14.0484 70.2539 12.01H68.2539ZM60.6739 15.93C57.9816 15.93 56.0391 15.5298 54.8037 14.8357C53.6431 14.1836 53.0939 13.2754 53.0939 12.01H51.0939C51.0939 14.0446 52.0747 15.5964 53.8241 16.5793C55.4987 17.5202 57.8462 17.93 60.6739 17.93V15.93ZM53.0939 12.01V3.07H51.0939V12.01H53.0939ZM53.0939 3.07C53.0939 2.85616 53.0694 2.68246 53.0466 2.5456C53.0218 2.39726 53.0088 2.33845 52.9978 2.23957L51.01 2.46043C51.029 2.63155 51.061 2.79774 51.0738 2.8744C51.0885 2.96254 51.0939 3.01384 51.0939 3.07H53.0939ZM52.2641 12.2113C52.3046 14.1131 53.4796 15.3736 55.051 16.1043C56.5805 16.8154 58.5859 17.09 60.6739 17.09V15.09C58.712 15.09 57.0423 14.8246 55.8943 14.2907C54.7882 13.7764 54.2832 13.0869 54.2637 12.1687L52.2641 12.2113ZM60.6739 17.09C63.0727 17.09 65.1089 16.738 66.5834 15.9725C68.1069 15.1816 69.0839 13.9047 69.0839 12.19H67.0839C67.0839 12.9953 66.6809 13.6684 65.6619 14.1975C64.5939 14.752 62.9252 15.09 60.6739 15.09V17.09ZM69.0839 12.19V7.57H67.0839V12.19H69.0839ZM68.1365 6.57138C66.1724 6.46801 63.3459 6.26065 60.6803 6.38356C59.3435 6.4452 58.0104 6.59081 56.8161 6.88611C55.6318 7.17892 54.5083 7.63701 53.6583 8.37486L54.9695 9.88514C55.4845 9.43799 56.266 9.08232 57.2961 8.82764C58.3162 8.57544 59.5069 8.43979 60.7725 8.38144C63.3119 8.26435 66.0054 8.46199 68.0313 8.56862L68.1365 6.57138ZM53.6577 8.37539C52.7583 9.15754 52.2639 10.2689 52.2639 11.32H54.2639C54.2639 10.8711 54.4896 10.3025 54.9701 9.8846L53.6577 8.37539ZM52.2639 11.32V12.19H54.2639V11.32H52.2639Z" fill="#089885"/>
</svg>
