<svg width="57" height="57" viewBox="0 0 57 57" fill="none" xmlns="http://www.w3.org/2000/svg">
<g clip-path="url(#clip0_1_4981)">
<path d="M40.6274 40.6125H26.3774V21.3268L38.6989 28.0768L40.6274 40.6125Z" fill="#2F2E41"/>
<path d="M29.01 37.2087C34.1195 37.2087 38.2616 33.0666 38.2616 27.957C38.2616 22.8475 34.1195 18.7054 29.01 18.7054C23.9004 18.7054 19.7583 22.8475 19.7583 27.957C19.7583 33.0666 23.9004 37.2087 29.01 37.2087Z" fill="#FFB6B6"/>
<path d="M23.6989 38.5768L23.2809 34.3518L31.6274 32.7911L36.556 44.7911L27.9846 54.6482L21.8774 42.6482L23.6989 38.5768Z" fill="#FFB6B6"/>
<path d="M48.9685 48.3311C48.8646 48.4393 48.7585 48.5464 48.6524 48.6525C48.316 48.9889 47.9731 49.3157 47.6228 49.6328C42.3728 54.3943 35.6367 57 28.4999 57C21.9203 57 15.6814 54.7853 10.6339 50.7086C10.6306 50.7064 10.6285 50.7043 10.6253 50.7011C10.4721 50.5778 10.321 50.4525 10.1699 50.325C10.1967 50.2478 10.2256 50.1718 10.2546 50.0968C11.8778 45.8678 15.0835 43.7989 17.0292 42.8936C17.9935 42.4446 18.6481 42.2807 18.6481 42.2807L20.9324 38.1664L22.5406 41.1664L23.7256 43.3778L28.5878 52.4496L32.7824 42.0053L34.0821 38.7675L34.4153 37.9382L35.9999 39.1714L37.4999 40.3382L40.5203 41.0046L42.9706 41.5457L46.2985 42.2807C47.6442 43.3768 48.4628 45.4618 48.9203 48.0525C48.9374 48.1446 48.9535 48.2378 48.9685 48.3311Z" fill="#089885"/>
<path d="M24.1435 17.4432C25.2704 15.5502 27.3402 14.2514 29.5349 14.0599C31.7296 13.8685 33.993 14.7894 35.4306 16.4587C36.2873 17.4534 36.8491 18.6717 37.6841 19.6847C39.4812 21.8645 42.5454 23.1391 43.3305 25.8529C43.673 27.0372 43.5023 28.3015 43.329 29.5221C43.1804 30.5682 43.0319 31.6144 42.8833 32.6605C42.7677 33.4747 42.6568 34.3329 42.9621 35.0965C43.3202 35.9923 44.1773 36.579 44.7315 37.3687C45.6744 38.7125 45.6055 40.6798 44.5708 41.9543C44.1221 42.5069 43.5272 42.9238 43.0568 43.4581C42.5863 43.9924 42.2374 44.723 42.4344 45.4071C42.8119 46.7176 44.8671 47.0318 45.0925 48.3769C45.2077 49.0645 44.7327 49.7512 44.1104 50.0657C43.4881 50.3801 42.7555 50.3893 42.0634 50.3051C39.4326 49.9854 36.9969 48.3416 35.7161 46.0216C34.4352 43.7016 34.3419 40.7646 35.473 38.368C36.402 36.3996 38.1286 34.6602 38.1098 32.4838C38.0995 31.298 37.5556 30.1906 37.0238 29.1307C35.9353 26.9615 34.8468 24.7924 33.7584 22.6232C33.1753 21.4612 32.4986 20.2091 31.2982 19.7099C30.3705 19.3241 29.3179 19.4737 28.3256 19.6315C27.3333 19.7893 26.2822 19.9429 25.3518 19.5638C24.4213 19.1848 23.7182 18.0585 24.1615 17.1569" fill="#2F2E41"/>
<path d="M25.7649 17.5421C23.9774 16.9537 21.9723 17.8982 20.7622 19.3393C19.5521 20.7804 18.9651 22.6292 18.4059 24.426C18.0856 25.4552 17.7653 26.4844 17.445 27.5136C17.1437 28.4818 16.8424 29.4499 16.5411 30.4181C16.1867 31.5569 15.8294 32.7667 16.1202 33.9234C16.3305 34.7596 16.8716 35.5189 16.8832 36.381C16.8954 37.2816 16.3314 38.0723 15.8371 38.8252C15.3429 39.5782 14.8789 40.4728 15.1144 41.3421C15.4726 42.6645 17.311 43.3913 17.2102 44.7576C17.1766 45.2136 16.9129 45.6353 16.9177 46.0925C16.9238 46.6742 17.3792 47.1768 17.9128 47.4086C18.4464 47.6403 19.0466 47.6529 19.6282 47.6427C21.4123 47.6113 23.1931 47.3994 24.9348 47.0113C25.6048 46.862 26.2862 46.6789 26.844 46.2787C27.4018 45.8784 27.8179 45.2153 27.7453 44.5327C27.6322 43.4689 26.4884 42.8654 25.9112 41.9647C25.3443 41.08 25.3574 39.959 25.113 38.9371C24.777 37.5326 23.9472 36.3064 23.3243 35.0036C20.9825 30.1054 21.8023 23.8621 25.3292 19.7345C25.641 19.3696 25.9817 19.0025 26.1118 18.5404C26.2419 18.0783 26.0742 17.4896 25.6222 17.328" fill="#2F2E41"/>
<mask id="path-7-inside-1_1_4981" fill="white">
<path d="M48.6525 8.3475C43.2696 2.96464 36.1125 0 28.5 0C20.8875 0 13.7304 2.96464 8.3475 8.3475C2.96464 13.7304 0 20.8875 0 28.5C0 35.4482 2.46964 42.0171 6.99535 47.2039C7.42714 47.7 7.87822 48.1832 8.3475 48.6525C8.45786 48.7629 8.56928 48.8732 8.68179 48.9804C8.98179 49.2707 9.28714 49.5546 9.59786 49.83C9.78643 49.9982 9.97714 50.1632 10.17 50.325C10.3211 50.4525 10.4721 50.5779 10.6254 50.7011C10.6286 50.7043 10.6307 50.7064 10.6339 50.7086C15.6814 54.7854 21.9204 57 28.5 57C35.6368 57 42.3729 54.3943 47.6229 49.6329C47.9732 49.3157 48.3161 48.9889 48.6525 48.6525C48.7586 48.5464 48.8646 48.4393 48.9686 48.3311C49.2579 48.0332 49.5386 47.73 49.8129 47.4225C54.4596 42.2025 57 35.5468 57 28.5C57 20.8875 54.0354 13.7304 48.6525 8.3475ZM49.7432 47.1557C49.4754 47.46 49.2011 47.76 48.9204 48.0525C48.4832 48.5079 48.0321 48.9493 47.5661 49.3746C47.3893 49.5375 47.2104 49.6961 47.0293 49.8536C45.2004 51.4446 43.1646 52.8032 40.9693 53.8854C40.1989 54.2657 39.4093 54.6118 38.6014 54.9214C35.4632 56.1257 32.0571 56.7857 28.5 56.7857C25.0671 56.7857 21.7757 56.1707 18.7296 55.0457C17.4793 54.585 16.2707 54.0375 15.1104 53.4107C14.94 53.3186 14.7707 53.2254 14.6025 53.13C13.7175 52.6286 12.8614 52.0811 12.0396 51.4896C11.4257 51.0493 10.83 50.5854 10.2546 50.0968C10.0532 49.9264 9.85393 49.7539 9.65786 49.5771C9.33857 49.2932 9.02571 49.0007 8.72036 48.7007C8.14179 48.1339 7.58893 47.5436 7.06072 46.9296C2.79536 41.9754 0.214286 35.5339 0.214286 28.5C0.214286 12.9032 12.9032 0.214286 28.5 0.214286C44.0968 0.214286 56.7857 12.9032 56.7857 28.5C56.7857 35.6421 54.1254 42.1736 49.7432 47.1557Z"/>
</mask>
<path d="M48.6525 8.3475C43.2696 2.96464 36.1125 0 28.5 0C20.8875 0 13.7304 2.96464 8.3475 8.3475C2.96464 13.7304 0 20.8875 0 28.5C0 35.4482 2.46964 42.0171 6.99535 47.2039C7.42714 47.7 7.87822 48.1832 8.3475 48.6525C8.45786 48.7629 8.56928 48.8732 8.68179 48.9804C8.98179 49.2707 9.28714 49.5546 9.59786 49.83C9.78643 49.9982 9.97714 50.1632 10.17 50.325C10.3211 50.4525 10.4721 50.5779 10.6254 50.7011C10.6286 50.7043 10.6307 50.7064 10.6339 50.7086C15.6814 54.7854 21.9204 57 28.5 57C35.6368 57 42.3729 54.3943 47.6229 49.6329C47.9732 49.3157 48.3161 48.9889 48.6525 48.6525C48.7586 48.5464 48.8646 48.4393 48.9686 48.3311C49.2579 48.0332 49.5386 47.73 49.8129 47.4225C54.4596 42.2025 57 35.5468 57 28.5C57 20.8875 54.0354 13.7304 48.6525 8.3475ZM49.7432 47.1557C49.4754 47.46 49.2011 47.76 48.9204 48.0525C48.4832 48.5079 48.0321 48.9493 47.5661 49.3746C47.3893 49.5375 47.2104 49.6961 47.0293 49.8536C45.2004 51.4446 43.1646 52.8032 40.9693 53.8854C40.1989 54.2657 39.4093 54.6118 38.6014 54.9214C35.4632 56.1257 32.0571 56.7857 28.5 56.7857C25.0671 56.7857 21.7757 56.1707 18.7296 55.0457C17.4793 54.585 16.2707 54.0375 15.1104 53.4107C14.94 53.3186 14.7707 53.2254 14.6025 53.13C13.7175 52.6286 12.8614 52.0811 12.0396 51.4896C11.4257 51.0493 10.83 50.5854 10.2546 50.0968C10.0532 49.9264 9.85393 49.7539 9.65786 49.5771C9.33857 49.2932 9.02571 49.0007 8.72036 48.7007C8.14179 48.1339 7.58893 47.5436 7.06072 46.9296C2.79536 41.9754 0.214286 35.5339 0.214286 28.5C0.214286 12.9032 12.9032 0.214286 28.5 0.214286C44.0968 0.214286 56.7857 12.9032 56.7857 28.5C56.7857 35.6421 54.1254 42.1736 49.7432 47.1557Z" fill="#3F3D56"/>
<path d="M48.6525 8.3475L52.8951 4.10486L52.8951 4.10485L48.6525 8.3475ZM8.3475 8.3475L4.10486 4.10485L4.10486 4.10486L8.3475 8.3475ZM6.99535 47.2039L11.5211 43.2647L11.5163 43.2592L6.99535 47.2039ZM8.3475 48.6525L4.10483 52.8951L4.10486 52.8951L8.3475 48.6525ZM8.68179 48.9804L12.8546 44.669L12.8372 44.6521L12.8196 44.6354L8.68179 48.9804ZM9.59786 49.83L13.5919 45.3526L13.5846 45.346L13.5773 45.3395L9.59786 49.83ZM10.17 50.325L14.0398 45.7397L14.0329 45.7339L14.0261 45.7282L10.17 50.325ZM10.6254 50.7011L14.868 46.4584L14.6384 46.2289L14.3854 46.0254L10.6254 50.7011ZM10.6339 50.7086L14.4039 46.0409L14.1926 45.8702L13.9667 45.7193L10.6339 50.7086ZM47.6229 49.6329L43.5963 45.1846L43.5921 45.1885L47.6229 49.6329ZM48.6525 48.6525L52.8951 52.8951L52.8951 52.8951L48.6525 48.6525ZM48.9686 48.3311L44.6645 44.1508L44.6527 44.1629L44.641 44.1751L48.9686 48.3311ZM49.8129 47.4225L54.2904 51.4164L54.2944 51.4119L49.8129 47.4225ZM49.7432 47.1557L54.2468 51.1202L54.2485 51.1184L49.7432 47.1557ZM48.9204 48.0525L53.2487 52.2077L53.2494 52.207L48.9204 48.0525ZM47.5661 49.3746L43.5214 44.9428L43.5111 44.9523L43.5008 44.9617L47.5661 49.3746ZM47.0293 49.8536L43.0915 45.3266L43.0912 45.3268L47.0293 49.8536ZM40.9693 53.8854L38.3165 48.5037L38.313 48.5054L40.9693 53.8854ZM38.6014 54.9214L36.454 49.3189L36.4518 49.3197L38.6014 54.9214ZM18.7296 55.0457L20.8084 49.4173L20.8041 49.4157L18.7296 55.0457ZM15.1104 53.4107L12.2558 58.6882L12.2588 58.6898L15.1104 53.4107ZM14.6025 53.13L17.5614 47.9104L17.5603 47.9097L14.6025 53.13ZM12.0396 51.4896L15.5445 46.6197L15.5367 46.6141L12.0396 51.4896ZM10.2546 50.0968L14.1383 45.5232L14.1292 45.5155L10.2546 50.0968ZM9.65786 49.5771L13.6757 45.121L13.6604 45.1072L13.645 45.0935L9.65786 49.5771ZM8.72036 48.7007L12.9253 44.4207L12.9191 44.4146L8.72036 48.7007ZM7.06072 46.9296L11.609 43.0164L11.6077 43.0149L7.06072 46.9296ZM52.8951 4.10485C46.3871 -2.4032 37.7038 -6 28.5 -6V6C34.5212 6 40.1522 8.33248 44.4099 12.5901L52.8951 4.10485ZM28.5 -6C19.2962 -6 10.6129 -2.4032 4.10486 4.10485L12.5901 12.5901C16.8478 8.33248 22.4788 6 28.5 6V-6ZM4.10486 4.10486C-2.4032 10.6129 -6 19.2962 -6 28.5H6C6 22.4788 8.33248 16.8478 12.5901 12.5901L4.10486 4.10486ZM-6 28.5C-6 36.8955 -3.00704 44.8665 2.4744 51.1487L11.5163 43.2592C7.94633 39.1677 6 34.001 6 28.5H-6ZM2.46963 51.1432C2.99318 51.7447 3.53874 52.329 4.10483 52.8951L12.5902 44.4099C12.2177 44.0374 11.8611 43.6553 11.5211 43.2647L2.46963 51.1432ZM4.10486 52.8951C4.22555 53.0158 4.37787 53.1671 4.54396 53.3253L12.8196 44.6354C12.7607 44.5793 12.6902 44.5099 12.5901 44.4099L4.10486 52.8951ZM4.50898 53.2917C4.86621 53.6375 5.23607 53.9816 5.61843 54.3204L13.5773 45.3395C13.3382 45.1277 13.0974 44.904 12.8546 44.669L4.50898 53.2917ZM5.60379 54.3074C5.83749 54.5159 6.07419 54.7207 6.31391 54.9218L14.0261 45.7282C13.8801 45.6057 13.7354 45.4805 13.5919 45.3526L5.60379 54.3074ZM6.30023 54.9103C6.47579 55.0584 6.66488 55.2156 6.8653 55.3767L14.3854 46.0254C14.2794 45.9401 14.1664 45.8465 14.0398 45.7397L6.30023 54.9103ZM6.38272 54.9437C6.38289 54.9439 6.38464 54.9456 6.38675 54.9477C6.38897 54.95 6.39253 54.9535 6.39691 54.9579C6.40531 54.9662 6.41992 54.9807 6.43819 54.9985C6.47389 55.0333 6.53687 55.094 6.61783 55.1668C6.79945 55.3301 7.02645 55.5143 7.30112 55.6978L13.9667 45.7193C14.5233 46.0912 14.909 46.4994 14.868 46.4584L6.38272 54.9437ZM6.86393 55.3762C12.9819 60.3176 20.5523 63 28.5 63V51C23.2884 51 18.381 49.2531 14.4039 46.0409L6.86393 55.3762ZM28.5 63C37.125 63 45.2984 59.8411 51.6537 54.0773L43.5921 45.1885C39.4473 48.9475 34.1486 51 28.5 51V63ZM51.6494 54.0811C52.0763 53.6947 52.4911 53.2992 52.8951 52.8951L44.4099 44.4099C44.1411 44.6787 43.8702 44.9367 43.5963 45.1846L51.6494 54.0811ZM52.8951 52.8951C53.0136 52.7767 53.1519 52.6373 53.2961 52.4871L44.641 44.1751C44.5774 44.2413 44.5036 44.3162 44.4099 44.4099L52.8951 52.8951ZM53.2727 52.5114C53.6282 52.1453 53.9668 51.7792 54.2904 51.4164L45.3353 43.4286C45.1103 43.6808 44.8875 43.9211 44.6645 44.1508L53.2727 52.5114ZM54.2944 51.4119C59.9208 45.0915 63 37.0154 63 28.5H51C51 34.0781 48.9985 39.3135 45.3313 43.4331L54.2944 51.4119ZM63 28.5C63 19.2962 59.4032 10.6129 52.8951 4.10486L44.4099 12.5901C48.6675 16.8478 51 22.4788 51 28.5H63ZM45.2396 43.1912C45.0213 43.4392 44.8053 43.675 44.5914 43.898L53.2494 52.207C53.5968 51.8449 53.9294 51.4808 54.2468 51.1202L45.2396 43.1912ZM44.592 43.8973C44.2413 44.2627 43.8846 44.6114 43.5214 44.9428L51.6107 53.8064C52.1797 53.2872 52.7252 52.753 53.2487 52.2077L44.592 43.8973ZM43.5008 44.9617C43.3794 45.0736 43.2459 45.1922 43.0915 45.3266L50.9671 54.3806C51.1748 54.1999 51.3992 54.0014 51.6313 53.7876L43.5008 44.9617ZM43.0912 45.3268C41.6493 46.5812 40.0451 47.6516 38.3165 48.5037L43.6221 59.2671C46.2842 57.9548 48.7514 56.3081 50.9673 54.3804L43.0912 45.3268ZM38.313 48.5054C37.7067 48.8047 37.0868 49.0763 36.454 49.3189L40.7488 60.524C41.7318 60.1472 42.6912 59.7267 43.6256 59.2653L38.313 48.5054ZM36.4518 49.3197C33.9879 50.2652 31.3098 50.7857 28.5 50.7857V62.7857C32.8045 62.7857 36.9385 61.9862 40.7511 60.5231L36.4518 49.3197ZM28.5 50.7857C25.7886 50.7857 23.2003 50.3007 20.8084 49.4173L16.6509 60.6741C20.3511 62.0407 24.3457 62.7857 28.5 62.7857V50.7857ZM20.8041 49.4157C19.8239 49.0546 18.8749 48.6248 17.9619 48.1316L12.2588 58.6898C13.6665 59.4502 15.1346 60.1154 16.6552 60.6757L20.8041 49.4157ZM17.9649 48.1333C17.8204 48.0551 17.687 47.9815 17.5614 47.9104L11.6435 58.3496C11.8544 58.4692 12.0596 58.5821 12.2558 58.6882L17.9649 48.1333ZM17.5603 47.9097C16.8611 47.5135 16.1878 47.0827 15.5445 46.6197L8.5348 56.3596C9.53504 57.0794 10.5739 57.7436 11.6447 58.3503L17.5603 47.9097ZM15.5367 46.6141C15.0509 46.2657 14.5845 45.9022 14.1383 45.5233L6.37098 54.6703C7.07548 55.2685 7.80054 55.8329 8.54256 56.3651L15.5367 46.6141ZM14.1292 45.5155C13.9618 45.374 13.8125 45.2444 13.6757 45.121L5.64002 54.0333C5.89533 54.2635 6.14459 54.4789 6.38013 54.6781L14.1292 45.5155ZM13.645 45.0935C13.4003 44.8759 13.16 44.6513 12.9253 44.4207L4.51542 52.9807C4.89139 53.3501 5.27686 53.7105 5.67076 54.0608L13.645 45.0935ZM12.9191 44.4146C12.4637 43.9685 12.0273 43.5026 11.609 43.0164L2.51245 50.8429C3.15056 51.5845 3.81991 52.2994 4.52161 52.9868L12.9191 44.4146ZM11.6077 43.0149C8.24092 39.1044 6.21429 34.0387 6.21429 28.5H-5.78571C-5.78571 37.0292 -2.6502 44.8463 2.51373 50.8443L11.6077 43.0149ZM6.21429 28.5C6.21429 16.2169 16.2169 6.21429 28.5 6.21429V-5.78571C9.58951 -5.78571 -5.78571 9.58951 -5.78571 28.5H6.21429ZM28.5 6.21429C40.7831 6.21429 50.7857 16.2169 50.7857 28.5H62.7857C62.7857 9.58951 47.4105 -5.78571 28.5 -5.78571V6.21429ZM50.7857 28.5C50.7857 34.1241 48.6967 39.2608 45.238 43.193L54.2485 51.1184C59.5541 45.0863 62.7857 37.1601 62.7857 28.5H50.7857Z" fill="black" mask="url(#path-7-inside-1_1_4981)"/>
</g>
<defs>
<clipPath id="clip0_1_4981">
<rect width="57" height="57" fill="white"/>
</clipPath>
</defs>
</svg>
