<svg width="35" height="35" viewBox="0 0 35 35" fill="none" xmlns="http://www.w3.org/2000/svg">
<path d="M4.375 13.2855V21.7001C4.375 24.7917 4.375 24.7917 7.29167 26.7605L15.3125 31.398C16.5229 32.098 18.4917 32.098 19.6875 31.398L27.7083 26.7605C30.625 24.7917 30.625 24.7917 30.625 21.7146V13.2855C30.625 10.2084 30.625 10.2084 27.7083 8.23965L19.6875 3.60215C18.4917 2.90215 16.5229 2.90215 15.3125 3.60215L7.29167 8.23965C4.375 10.2084 4.375 10.2084 4.375 13.2855Z" stroke="#292D32" stroke-width="1.5" stroke-linecap="round" stroke-linejoin="round"/>
<path d="M17.5 21.875C19.9162 21.875 21.875 19.9162 21.875 17.5C21.875 15.0838 19.9162 13.125 17.5 13.125C15.0838 13.125 13.125 15.0838 13.125 17.5C13.125 19.9162 15.0838 21.875 17.5 21.875Z" stroke="#292D32" stroke-width="1.5" stroke-linecap="round" stroke-linejoin="round"/>
</svg>
